<svg width="215" height="205" viewBox="0 0 215 205" fill="none" xmlns="http://www.w3.org/2000/svg">
<path d="M206.032 5.71484V42.7005H150.3L148.292 5.97067L206.032 5.71484Z" fill="#E0E0E0"/>
<path d="M148.292 5.97085V42.623H204.024V5.97085H148.292Z" fill="white"/>
<path d="M204.293 42.8745H148.029V5.71973H204.293V42.8745ZM148.556 42.3719H203.761V6.22225H148.556V42.3719Z" fill="#E0E0E0"/>
<path d="M197.99 10.5254H154.331V38.0682H197.99V10.5254Z" fill="white"/>
<path d="M197.99 10.5258H197.774H197.156H194.759L185.763 10.5577L154.336 10.6171L154.461 10.4983C154.461 18.9133 154.461 28.2374 154.461 38.0366L154.327 37.9041L197.985 37.9315L197.875 38.0366C197.899 29.6536 197.918 22.7828 197.932 17.9951C197.932 15.6058 197.956 13.7373 197.961 12.4536C197.961 11.8232 197.961 11.3389 197.961 11.0009C197.961 10.6674 197.961 10.4938 197.961 10.4938C197.961 10.4938 197.961 10.6537 197.961 10.978C197.961 11.3024 197.961 11.7912 197.961 12.4125C197.961 13.6917 197.961 15.551 197.99 17.9311C197.99 22.7325 198.023 29.6262 198.047 38.032V38.1371H197.937L154.279 38.1645H154.14V38.032C154.14 28.2328 154.14 18.9088 154.14 10.4938V10.375H154.269L185.869 10.4664L194.836 10.4983H197.209H197.813L197.99 10.5258Z" fill="#E0E0E0"/>
<path d="M148.292 5.87012C148.636 6.02811 148.958 6.22605 149.251 6.45944C149.821 6.85232 150.597 7.40967 151.436 8.04924C152.275 8.68882 153.013 9.29184 153.531 9.74868C153.831 9.97369 154.1 10.2347 154.331 10.5253C153.269 9.81347 152.245 9.0511 151.264 8.24111C150.223 7.50979 149.23 6.71795 148.292 5.87012Z" fill="#E0E0E0"/>
<path d="M204.029 5.9707C203.111 6.82856 202.131 7.62389 201.096 8.35083C200.115 9.144 199.077 9.87064 197.99 10.5254C198.907 9.66632 199.887 8.8709 200.923 8.14526C201.904 7.35209 202.941 6.62545 204.029 5.9707Z" fill="#E0E0E0"/>
<path d="M203.981 42.6276L197.75 37.8262L203.981 42.6276Z" fill="white"/>
<path d="M197.769 37.8262C198.886 38.5182 199.952 39.2813 200.961 40.1104C202.027 40.8779 203.036 41.7143 203.981 42.6138C202.864 41.9219 201.797 41.1587 200.789 40.3297C199.723 39.5622 198.714 38.7257 197.769 37.8262Z" fill="#E0E0E0"/>
<path d="M148.292 42.6226C149.2 41.7717 150.171 40.984 151.196 40.2653C152.164 39.4787 153.191 38.7611 154.269 38.1182C153.361 38.9681 152.391 39.7544 151.364 40.4709C150.396 41.2579 149.369 41.9771 148.292 42.6226Z" fill="#E0E0E0"/>
<path d="M163.194 19.1045V28.3281H190.667V19.1045H163.194Z" fill="#E0E0E0"/>
<path d="M165.585 203.933H215L215 67.2235H165.585V203.933Z" fill="#E0E0E0"/>
<path d="M139.061 203.933H193.164L193.164 67.2235H139.061V203.933Z" fill="#F5F5F5"/>
<path d="M172.276 172.032H157.821C157.547 172.032 157.285 171.929 157.092 171.745C156.899 171.56 156.79 171.311 156.79 171.05V170.232H173.307V171.05C173.307 171.311 173.198 171.56 173.005 171.745C172.812 171.929 172.549 172.032 172.276 172.032Z" fill="#E0E0E0"/>
<path d="M141.453 170.232C141.453 170.232 141.453 170.396 141.453 170.725C141.453 171.054 141.453 171.552 141.453 172.192C141.453 173.494 141.453 175.39 141.424 177.834C141.424 182.745 141.391 189.808 141.367 198.455V198.561H141.477L189.689 198.588H189.852V198.455C189.852 188.469 189.852 178.944 189.852 170.273V170.154H189.703L154.916 170.182L144.99 170.205H142.359H141.683H141.463H141.702H142.388H145.043L155.003 170.246L189.703 170.337L189.574 170.214C189.574 178.894 189.574 188.41 189.574 198.396L189.713 198.268H189.684L141.472 198.296L141.578 198.396C141.554 189.776 141.534 182.731 141.52 177.838C141.52 175.39 141.52 173.48 141.496 172.174C141.496 171.525 141.496 171.031 141.496 170.689C141.496 170.346 141.453 170.232 141.453 170.232Z" fill="#E0E0E0"/>
<path d="M157.442 180.826H171.796V177.13H157.442V180.826Z" fill="#E0E0E0"/>
<path d="M172.932 139.14H158.482C158.209 139.14 157.946 139.036 157.753 138.852C157.56 138.668 157.451 138.418 157.451 138.157V137.34H173.963V138.157C173.963 138.418 173.854 138.668 173.661 138.852C173.468 139.036 173.206 139.14 172.932 139.14Z" fill="#E0E0E0"/>
<path d="M141.587 137.334C141.587 137.334 141.587 137.499 141.587 137.828C141.587 138.157 141.587 138.659 141.587 139.294C141.587 140.596 141.587 142.492 141.558 144.936C141.558 149.847 141.525 156.91 141.501 165.563V165.663H141.611L189.823 165.691H189.986V165.563C189.986 155.572 189.986 146.046 189.986 137.38V137.257H189.861L155.074 137.284L145.148 137.312H142.517H141.841H141.621H141.86H142.546H145.201L155.161 137.357L189.861 137.444L189.732 137.325C189.732 146.005 189.732 155.517 189.732 165.508L189.871 165.375H189.842L141.63 165.403L141.736 165.508C141.712 156.883 141.693 149.843 141.678 144.95C141.678 142.501 141.678 140.592 141.678 139.285C141.678 138.641 141.678 138.143 141.678 137.8C141.678 137.458 141.587 137.334 141.587 137.334Z" fill="#E0E0E0"/>
<path d="M158.525 147.71H172.88V144.014H158.525V147.71Z" fill="#E0E0E0"/>
<path d="M172.304 72.7559H157.849C157.576 72.7559 157.314 72.6524 157.12 72.4682C156.927 72.284 156.819 72.0341 156.819 71.7737V70.9559H173.335V71.7737C173.335 71.9026 173.308 72.0304 173.257 72.1495C173.205 72.2687 173.129 72.377 173.033 72.4682C172.937 72.5594 172.824 72.6317 172.699 72.6811C172.574 72.7305 172.44 72.7559 172.304 72.7559Z" fill="#E0E0E0"/>
<path d="M141.477 70.9517C141.477 70.9517 141.477 71.1161 141.477 71.4451C141.477 71.774 141.477 72.2765 141.477 72.9115C141.477 74.2135 141.477 76.1094 141.453 78.5535C141.453 83.4645 141.419 90.5272 141.396 99.1798V99.2803H141.501L189.718 99.3123H189.881V99.1798C189.881 89.1887 189.881 79.6636 189.881 70.9974V70.874H189.703L154.921 70.9014L144.99 70.9288H142.359H141.688H141.463C141.542 70.9328 141.622 70.9328 141.702 70.9288H142.388H145.048L155.003 70.97L189.703 71.0568L189.574 70.938C189.574 79.6179 189.574 89.1293 189.574 99.1204L189.713 98.9879L141.496 99.0153L141.606 99.1204C141.582 90.4953 141.563 83.4554 141.549 78.5626C141.549 76.114 141.525 74.2044 141.52 72.8978C141.52 72.2537 141.52 71.7557 141.52 71.4131C141.52 71.0705 141.477 70.9517 141.477 70.9517Z" fill="#E0E0E0"/>
<path d="M158.156 80.6641H172.511V76.9682H158.156V80.6641Z" fill="#E0E0E0"/>
<path d="M172.305 105.937H157.849C157.576 105.937 157.314 105.833 157.121 105.649C156.927 105.465 156.819 105.215 156.819 104.954V104.109H173.335V104.927C173.339 105.058 173.315 105.189 173.265 105.311C173.215 105.434 173.14 105.545 173.044 105.639C172.948 105.733 172.833 105.808 172.706 105.859C172.579 105.91 172.442 105.937 172.305 105.937Z" fill="#E0E0E0"/>
<path d="M141.477 104.118C141.477 104.118 141.477 104.283 141.477 104.612C141.477 104.941 141.477 105.439 141.477 106.078C141.477 107.38 141.477 109.276 141.453 111.72C141.453 116.631 141.419 123.694 141.396 132.342V132.442H141.501L189.718 132.47H189.881V132.337C189.881 122.351 189.881 112.826 189.881 104.155V104.036H189.703L154.921 104.064H144.99H142.359H141.688H141.463H141.702H142.388H145.048L155.003 104.105L189.703 104.196L189.574 104.073C189.574 112.753 189.574 122.269 189.574 132.255L189.713 132.127L141.496 132.155L141.606 132.255C141.582 123.635 141.563 116.59 141.549 111.697C141.549 109.249 141.525 107.339 141.52 106.033C141.52 105.384 141.52 104.89 141.52 104.548C141.52 104.205 141.477 104.118 141.477 104.118Z" fill="#E0E0E0"/>
<path d="M158.156 113.835H172.511V110.139H158.156V113.835Z" fill="#E0E0E0"/>
<path d="M62.9935 4.79199H11.187V48.9683H62.9935V4.79199Z" fill="#FAFAFA"/>
<path d="M62.993 48.9685C62.993 48.9685 62.993 48.6853 62.993 48.1462C62.993 47.6071 62.993 46.8122 62.993 45.7798C62.993 43.7057 62.993 40.6769 62.9595 36.812C62.9595 29.096 62.9259 18.0816 62.902 4.79218L63.017 4.90182H11.2153L11.3543 4.76934C11.3543 20.8409 11.3543 35.9623 11.3543 48.9457L11.2297 48.8269L48.7006 48.8863L59.2689 48.9183H62.068H62.7869H63.0362H62.8013H62.092H59.3217L48.7773 48.9457L11.2297 49.0051H11.1099V48.8909C11.1099 35.9075 11.1099 20.7861 11.1099 4.71452V4.58203H11.2536H63.0553H63.1752V4.69624C63.1464 17.9994 63.1272 29.0503 63.1129 36.7892C63.1129 40.6403 63.0889 43.6418 63.0841 45.7295C63.0841 46.7529 63.0841 47.5569 63.0841 48.0777C63.0841 48.5985 62.993 48.9685 62.993 48.9685Z" fill="#E0E0E0"/>
<path d="M31.0577 12.6403C31.0577 12.7134 28.3305 12.7728 24.9659 12.7728C21.6013 12.7728 18.8789 12.7134 18.8789 12.6403C18.8789 12.5672 21.6013 12.5078 24.9659 12.5078C28.3305 12.5078 31.0577 12.5672 31.0577 12.6403Z" fill="#E0E0E0"/>
<path d="M53.0048 15.9479C53.0048 16.021 45.5135 16.0804 36.2728 16.0804C27.0321 16.0804 19.5552 16.0301 19.5552 15.9479C19.5552 15.8657 27.0465 15.8154 36.2872 15.8154C45.5279 15.8154 53.0048 15.884 53.0048 15.9479Z" fill="#E0E0E0"/>
<path d="M21.1412 21.5762H18.9604V23.6548H21.1412V21.5762Z" fill="#E0E0E0"/>
<path d="M26.5148 21.5762H24.334V23.6548H26.5148V21.5762Z" fill="#E0E0E0"/>
<path d="M31.9879 21.4805H29.8071V23.5591H31.9879V21.4805Z" fill="#E0E0E0"/>
<path d="M37.2599 21.5762H35.0791V23.6548H37.2599V21.5762Z" fill="#E0E0E0"/>
<path d="M42.6324 21.5762H40.4517V23.6548H42.6324V21.5762Z" fill="#E0E0E0"/>
<path d="M48.006 21.5762H45.8252V23.6548H48.006V21.5762Z" fill="#E0E0E0"/>
<path d="M53.3785 21.5762H51.1978V23.6548H53.3785V21.5762Z" fill="#EBEBEB"/>
<path d="M21.1412 25.999H18.9604V28.0776H21.1412V25.999Z" fill="#EBEBEB"/>
<path d="M26.5148 25.999H24.334V28.0776H26.5148V25.999Z" fill="#E0E0E0"/>
<path d="M31.8868 25.999H29.7061V28.0776H31.8868V25.999Z" fill="#EBEBEB"/>
<path d="M37.2599 25.999H35.0791V28.0776H37.2599V25.999Z" fill="#E0E0E0"/>
<path d="M42.6324 25.999H40.4517V28.0776H42.6324V25.999Z" fill="#E0E0E0"/>
<path d="M48.1017 25.9033H45.9209V27.9819H48.1017V25.9033Z" fill="#E0E0E0"/>
<path d="M53.3785 25.999H51.1978V28.0776H53.3785V25.999Z" fill="#E0E0E0"/>
<path d="M21.1412 30.4209H18.9604V32.4995H21.1412V30.4209Z" fill="#E0E0E0"/>
<path d="M26.6149 30.3252H24.4341V32.4038H26.6149V30.3252Z" fill="#E0E0E0"/>
<path d="M31.8868 30.4209H29.7061V32.4995H31.8868V30.4209Z" fill="#E0E0E0"/>
<path d="M37.2599 30.4209H35.0791V32.4995H37.2599V30.4209Z" fill="#EBEBEB"/>
<path d="M42.6324 30.4209H40.4517V32.4995H42.6324V30.4209Z" fill="#E0E0E0"/>
<path d="M48.006 30.4209H45.8252V32.4995H48.006V30.4209Z" fill="#E0E0E0"/>
<path d="M53.3785 30.4209H51.1978V32.4995H53.3785V30.4209Z" fill="#E0E0E0"/>
<path d="M21.1412 34.8428H18.9604V36.9214H21.1412V34.8428Z" fill="#E0E0E0"/>
<path d="M26.5148 34.8428H24.334V36.9214H26.5148V34.8428Z" fill="#E0E0E0"/>
<path d="M31.8868 34.8428H29.7061V36.9214H31.8868V34.8428Z" fill="#E0E0E0"/>
<path d="M37.3605 34.752H35.1797V36.8306H37.3605V34.752Z" fill="#E0E0E0"/>
<path d="M42.6324 34.8428H40.4517V36.9214H42.6324V34.8428Z" fill="#E0E0E0"/>
<path d="M48.006 34.8428H45.8252V36.9214H48.006V34.8428Z" fill="#EBEBEB"/>
<path d="M53.3785 34.8428H51.1978V36.9214H53.3785V34.8428Z" fill="#E0E0E0"/>
<path d="M21.1412 39.2656H18.9604V41.3442H21.1412V39.2656Z" fill="#E0E0E0"/>
<path d="M26.5148 39.2656H24.334V41.3442H26.5148V39.2656Z" fill="#EBEBEB"/>
<path d="M31.8868 39.2656H29.7061V41.3442H31.8868V39.2656Z" fill="#E0E0E0"/>
<path d="M37.2599 39.2656H35.0791V41.3442H37.2599V39.2656Z" fill="#E0E0E0"/>
<path d="M42.6324 39.2656H40.4517V41.3442H42.6324V39.2656Z" fill="#E0E0E0"/>
<path d="M48.1017 39.1738H45.9209V41.2524H48.1017V39.1738Z" fill="#E0E0E0"/>
<path d="M53.3785 39.2656H51.1978V41.3442H53.3785V39.2656Z" fill="#E0E0E0"/>
<path d="M106.54 70.5685L88.6743 76.9795L93.2085 88.4591L111.074 82.0481L106.54 70.5685Z" fill="#EBEBEB"/>
<path d="M106.652 70.6963C106.625 70.7715 106.59 70.8436 106.546 70.911L106.215 71.5049C105.909 72.0303 105.482 72.7703 104.96 73.6749C103.877 75.5022 102.391 78.0331 100.752 80.8244L100.718 80.8838H100.646L100.483 80.8336L92.201 78.2433L89.6943 77.4392L89.0185 77.2154C88.9372 77.1927 88.8585 77.1621 88.7837 77.124C88.8665 77.1387 88.9481 77.1585 89.0281 77.1834L89.7183 77.3798L92.2394 78.1336L100.555 80.6554L100.718 80.7056L100.613 80.7468C102.276 77.9646 103.771 75.452 104.869 73.6201L106.168 71.4729L106.532 70.8927C106.566 70.824 106.606 70.7582 106.652 70.6963Z" fill="#E0E0E0"/>
<path d="M93.3178 88.585C93.2746 88.585 93.9936 86.5156 94.933 83.9938C95.8724 81.4721 96.6632 79.4254 96.7063 79.4574C96.7495 79.4894 96.0305 81.5315 95.0959 84.0258C94.1613 86.5201 93.3657 88.585 93.3178 88.585Z" fill="#E0E0E0"/>
<path d="M102.592 77.1877C102.616 77.1465 104.562 78.2338 106.934 79.6089C109.307 80.984 111.21 82.1352 111.186 82.1763C111.162 82.2175 109.216 81.1302 106.843 79.7505C104.471 78.3709 102.568 77.2242 102.592 77.1877Z" fill="#E0E0E0"/>
<path d="M129.677 34.3356C130.133 34.0717 130.625 33.8673 131.138 33.728L131.44 32.3575L133.885 32.3164L134.24 33.6869C134.758 33.8075 135.256 33.995 135.721 34.2443L136.957 33.4722L138.716 35.0894L137.949 36.2955C138.226 36.7227 138.44 37.1837 138.587 37.666L140.025 37.9492L140.068 40.2837L138.63 40.6172C138.502 41.1113 138.307 41.5874 138.05 42.0334L138.86 43.2074L137.158 44.884L135.898 44.1577C135.44 44.4184 134.949 44.6211 134.436 44.7607L134.134 46.1312L131.69 46.1723L131.335 44.8018C130.818 44.6792 130.32 44.4918 129.854 44.2445L128.617 45.0165L126.858 43.3948L127.625 42.1933C127.347 41.7585 127.133 41.2898 126.988 40.7999L125.55 40.5121L125.507 38.1822L126.945 37.8442C127.072 37.3512 127.267 36.8765 127.525 36.4325L126.715 35.2539L128.416 33.5773L129.677 34.3082V34.3356ZM130.98 37.4376C130.619 37.7933 130.376 38.2433 130.283 38.7307C130.189 39.218 130.25 39.7208 130.456 40.1753C130.663 40.6298 131.007 41.0157 131.443 41.2841C131.88 41.5525 132.391 41.6913 132.911 41.683C133.43 41.6747 133.936 41.5196 134.363 41.2374C134.79 40.9552 135.12 40.5585 135.31 40.0976C135.501 39.6367 135.543 39.1323 135.433 38.6482C135.323 38.1641 135.064 37.7221 134.69 37.3782C134.444 37.1485 134.152 36.9674 133.833 36.8452C133.513 36.7229 133.171 36.662 132.826 36.6658C132.482 36.6696 132.141 36.7381 131.825 36.8674C131.508 36.9967 131.221 37.1842 130.98 37.4193V37.4376Z" fill="#E0E0E0"/>
<path d="M130.981 37.4198C131.117 37.261 131.279 37.1238 131.46 37.0132C131.776 36.8179 132.131 36.6889 132.504 36.6346C132.876 36.5803 133.256 36.6021 133.618 36.6984C133.981 36.7948 134.318 36.9635 134.607 37.1934C134.896 37.4233 135.13 37.7091 135.294 38.0319C135.531 38.487 135.62 38.9994 135.548 39.503C135.471 40.0454 135.216 40.5506 134.82 40.9466C134.42 41.3393 133.9 41.6002 133.334 41.6912C133.067 41.7323 132.795 41.7323 132.529 41.6912C132.27 41.6605 132.018 41.5928 131.781 41.4902C131.344 41.301 130.967 41.0047 130.688 40.6313C130.45 40.3046 130.296 39.929 130.238 39.5349C130.147 38.9651 130.269 38.383 130.583 37.8903C130.692 37.7182 130.83 37.564 130.99 37.4335C130.99 37.4335 130.832 37.5979 130.631 37.9406C130.349 38.4293 130.248 38.994 130.343 39.5441C130.406 39.9202 130.56 40.277 130.794 40.5857C131.061 40.938 131.422 41.2169 131.839 41.3943C132.063 41.489 132.3 41.5521 132.543 41.5816C132.797 41.6203 133.056 41.6203 133.31 41.5816C133.844 41.4948 134.336 41.2484 134.714 40.878C135.089 40.5015 135.331 40.022 135.405 39.5075C135.465 39.0387 135.383 38.5632 135.17 38.137C134.971 37.7442 134.667 37.4084 134.288 37.1639C133.956 36.953 133.577 36.8199 133.181 36.7756C132.602 36.7042 132.014 36.82 131.513 37.1046C131.148 37.2827 130.995 37.4517 130.981 37.4198Z" fill="#E0E0E0"/>
<path d="M129.677 34.336L129.595 34.2949L129.355 34.1625L128.397 33.6234H128.426L126.739 35.3137V35.268L127.553 36.4421C127.298 36.8844 127.106 37.3578 126.983 37.8491V37.8766H126.954L125.516 38.2192L125.555 38.1689C125.555 38.8999 125.588 39.6811 125.603 40.4988L125.56 40.444L126.997 40.7272H127.031V40.7592C127.177 41.2407 127.39 41.7016 127.664 42.1297V42.1617V42.1937L126.916 43.4591V43.3769L128.68 44.9941H128.593L129.825 44.2175L129.864 44.1946L129.902 44.2175C130.363 44.4613 130.856 44.6456 131.369 44.7657H131.412V44.8068L131.762 46.1773L131.69 46.1271L134.134 46.086L134.062 46.1408C134.158 45.6839 134.263 45.2271 134.364 44.7703V44.7291H134.407C134.913 44.594 135.397 44.3926 135.845 44.1307H135.888H135.927L137.187 44.8616H137.096L138.793 43.185V43.2718C138.52 42.8744 138.246 42.4815 137.983 42.0932L137.959 42.0566V42.0201C138.217 41.5809 138.412 41.1107 138.539 40.6222V40.581H138.582L140.02 40.2475L139.967 40.3161C139.967 39.5212 139.953 38.7445 139.924 37.9862L139.981 38.0502L138.543 37.7578H138.505V37.7167C138.362 37.2354 138.153 36.7745 137.882 36.3461V36.3142V36.2822L138.649 35.0761V35.1492L136.895 33.5274H136.967L135.73 34.2949H135.701H135.673C135.21 34.0497 134.715 33.8638 134.201 33.7422H134.172V33.7147C134.048 33.2168 133.933 32.7691 133.822 32.3442L133.87 32.3762L131.421 32.4036H131.455C131.33 32.9518 131.23 33.4041 131.143 33.7741C130.757 33.8744 130.383 34.0122 130.026 34.1853L129.763 34.3132L129.672 34.3589C129.696 34.3373 129.724 34.3189 129.753 34.3041L130.012 34.1625C130.368 33.9818 130.742 33.8363 131.129 33.7285C131.206 33.3538 131.301 32.9016 131.416 32.3579V32.3305H131.445L133.89 32.2803H133.928V32.3123C134.038 32.7371 134.158 33.1848 134.287 33.6828L134.249 33.6508C134.773 33.7718 135.278 33.9593 135.749 34.2081H135.692L136.928 33.4361L136.967 33.4087L137 33.4406L138.759 35.0579L138.798 35.0898L138.769 35.1309L138.007 36.337V36.273C138.287 36.712 138.503 37.1854 138.649 37.6801L138.601 37.6344L140.039 37.9177H140.092V37.9679C140.092 38.7263 140.125 39.5029 140.14 40.2978V40.3526H140.082L138.644 40.6907L138.697 40.6404C138.568 41.1399 138.37 41.6208 138.107 42.0703V41.9881L138.922 43.1668L138.951 43.2124L138.913 43.2535L137.211 44.9302L137.173 44.9713L137.12 44.9439L135.855 44.2129H135.931C135.471 44.4797 134.974 44.6857 134.455 44.8251L134.508 44.7703C134.402 45.2271 134.302 45.7159 134.206 46.1408V46.2002H134.148L131.704 46.2367H131.646V46.1819C131.522 45.725 131.402 45.2408 131.292 44.8114L131.345 44.8616C130.821 44.737 130.317 44.5481 129.844 44.2997H129.921L128.684 45.0718L128.637 45.0992L128.598 45.0626L126.839 43.4409L126.801 43.4089L126.83 43.3632C127.098 42.9429 127.357 42.5317 127.596 42.1617V42.2257C127.318 41.7847 127.104 41.3098 126.959 40.814L127.002 40.8551L125.564 40.5673H125.516V40.5217C125.516 39.7039 125.488 38.9273 125.478 38.1918V38.1507H125.516L126.954 37.8172L126.916 37.8766C127.045 37.3785 127.243 36.8992 127.505 36.4512V36.4969C127.213 36.072 126.945 35.6746 126.7 35.3137L128.406 33.6462L129.365 34.1944L129.6 34.3406C129.653 34.3132 129.677 34.3315 129.677 34.336Z" fill="#E0E0E0"/>
<path d="M11.1676 199.287C10.2905 198.574 8.33976 196.304 9.84473 193.668C10.3959 192.704 11.5702 192.224 12.6294 191.799C13.6886 191.374 14.8054 191.004 15.6825 190.292C17.3408 188.949 17.7962 186.719 18.8937 184.928C20.1591 182.873 22.5124 181.328 24.9999 181.438C27.8756 181.561 30.2242 183.782 31.3026 186.308C32.381 188.834 32.4193 191.644 32.4385 194.376C32.4385 195.888 32.381 197.574 31.2163 198.611C30.1475 199.552 28.5323 199.561 27.08 199.524L11.5079 199.068" fill="#F5F5F5"/>
<path d="M40.9458 158.481H0L7.37628 200.401C7.52782 201.275 7.9367 202.089 8.55529 202.75C9.17389 203.411 9.97673 203.891 10.8703 204.133L11.0141 204.174C11.1339 204.202 11.2537 204.243 11.3783 204.261C11.653 204.315 11.9321 204.346 12.2123 204.353V204.394L12.4136 204.362H30.6698C31.006 204.362 31.3414 204.331 31.6715 204.27C32.7395 204.112 33.7234 203.624 34.4723 202.881C35.2213 202.139 35.6938 201.182 35.8174 200.159L39.3689 171.273L39.5319 170.122L40.941 158.701L40.9458 158.481ZM33.2244 185.216H29.021L29.4428 173.05H34.3124L33.2244 185.216ZM34.7198 173.05H38.7267L37.2265 185.216H33.6318L34.7198 173.05ZM22.7375 198.706L22.4835 188.135H28.513L28.1439 198.706H22.7375ZM16.1713 188.135H22.0521L22.3062 198.706H17.034L16.1713 188.135ZM16.6505 198.706H11.6995C11.2202 195.851 10.6211 192.141 9.95965 188.135H15.7639L16.6505 198.706ZM15.9604 185.216L14.9682 173.05H21.6879L21.9802 185.216H15.9604ZM22.4116 185.216L22.1192 173.05H29.0354L28.6136 185.216H22.4116ZM22.0473 170.14L21.7742 158.874H29.5339L29.1408 170.131L22.0473 170.14ZM21.64 170.14H14.7046L13.8036 158.865H21.3476L21.64 170.14ZM14.2828 170.131H6.98326C6.72444 168.578 6.48 167.102 6.25474 165.777C5.49267 161.209 5.20509 159.509 5.04693 158.865H13.377L14.2828 170.131ZM14.5225 173.05L15.5146 185.216H9.48995C9.28385 183.982 9.07776 182.735 8.87166 181.483L7.47693 173.05H14.5225ZM9.06817 185.216H5.11403L2.97639 173.05H7.05515C7.67823 176.81 8.3732 180.994 9.06817 185.216ZM9.54746 188.135C10.1514 191.79 10.7409 195.399 11.2873 198.706H7.49131L5.62687 188.135H9.54746ZM28.5513 198.706L28.9204 188.135H32.9752L32.0166 198.706H28.5513ZM29.5434 170.131L29.9365 158.865H35.5825L34.576 170.131H29.5434ZM4.6587 158.865C4.82166 159.678 5.56935 164.114 6.57586 170.131H2.46355L0.47929 158.865H4.6587ZM35.5873 198.706H32.4192L33.3778 188.135H36.8958L35.5873 198.706ZM39.1053 170.131H34.9834L35.9947 158.865H40.4904L39.1053 170.131Z" fill="#E0E0E0"/>
<path d="M207.676 203.933C207.676 204.002 163.792 204.052 109.666 204.052C55.5399 204.052 11.6465 204.002 11.6465 203.933C11.6465 203.865 55.5207 203.814 109.666 203.814C163.812 203.814 207.676 203.869 207.676 203.933Z" fill="#263238"/>
<path d="M165.926 99.93C165.926 99.93 171.586 93.7216 173.724 87.5086C175.861 81.2956 174.845 82.0265 174.845 82.0265C174.845 82.0265 171.97 88.0568 169.774 90.9714C167.579 93.8861 163.683 98.1621 163.683 98.1621L165.926 99.93Z" fill="#455A64"/>
<path d="M164.78 82.9759C164.818 82.9129 164.879 82.8646 164.95 82.8391C165.022 82.8137 165.101 82.8127 165.173 82.8365C165.245 82.8602 165.307 82.9071 165.347 82.9691C165.387 83.0312 165.404 83.1047 165.393 83.1769C165.048 85.3606 164.301 90.4864 164.329 93.7985C164.368 98.111 164.329 99.7785 164.329 99.7785H161.971C161.971 99.7785 162.393 90.861 162.93 88.1428C163.278 86.3435 163.901 84.6026 164.78 82.9759Z" fill="#455A64"/>
<path d="M163.515 99.0569C162.526 96.9243 161.872 94.6646 161.573 92.3505C161.382 90.7607 161.727 88.6135 162.24 85.7537C162.439 84.6983 162.54 83.6282 162.542 82.5558C162.539 82.4375 162.496 82.3233 162.418 82.2309C162.341 82.1384 162.233 82.0729 162.113 82.0443C161.992 82.0157 161.865 82.0257 161.751 82.0727C161.637 82.1198 161.543 82.2013 161.482 82.3046C160.912 83.3072 160.471 84.3717 160.169 85.475C159.599 88.3029 158.952 89.7145 159.445 92.4007C159.939 95.0869 161.765 99.2122 161.765 99.2122L163.515 99.0569Z" fill="#455A64"/>
<path d="M161.391 99.2356C161.391 99.2356 155.16 86.5035 154.743 84.6168C154.326 82.73 152.85 78.3718 152.678 78.6185C152.505 78.8651 152.246 81.1676 153.368 83.7944C154.489 86.4213 159.268 99.6239 159.268 99.6239H161.391" fill="#455A64"/>
<path d="M164.195 98.6687C164.195 98.6687 164.258 98.6321 164.368 98.5545C164.478 98.4768 164.646 98.3626 164.847 98.2027C165.427 97.7605 165.984 97.2909 166.515 96.7956C168.26 95.153 169.772 93.2991 171.011 91.2816C172.256 89.2654 173.293 87.1388 174.107 84.9315C174.423 84.0864 174.649 83.3966 174.797 82.9123C174.874 82.6747 174.927 82.4874 174.96 82.3595C174.984 82.2959 175 82.2301 175.008 82.1631C175.008 82.1631 174.979 82.227 174.936 82.3504L174.749 82.8986C174.586 83.3554 174.342 84.0635 174.021 84.9041C173.188 87.0955 172.149 89.2102 170.915 91.2222C169.678 93.2337 168.178 95.088 166.453 96.7408C165.791 97.3713 165.221 97.8509 164.818 98.1753L164.339 98.5408C164.287 98.5793 164.239 98.6221 164.195 98.6687Z" fill="#263238"/>
<path d="M163.515 92.5604C163.545 92.4374 163.565 92.312 163.572 92.1858C163.601 91.9208 163.639 91.5782 163.682 91.1625C163.783 90.3036 163.936 89.1158 164.162 87.8093C164.387 86.5027 164.641 85.3286 164.818 84.4835L165.044 83.4784C165.078 83.3574 165.101 83.2335 165.111 83.1084C165.064 83.2265 165.024 83.347 164.991 83.4693C164.924 83.7023 164.833 84.0404 164.722 84.4652C164.512 85.3058 164.243 86.4799 164.032 87.791C163.821 89.1021 163.673 90.2899 163.596 91.1533C163.558 91.5873 163.534 91.9391 163.524 92.1812C163.508 92.307 163.504 92.434 163.515 92.5604Z" fill="#263238"/>
<path d="M162.057 82.2266C162.029 82.2778 162.005 82.3313 161.985 82.3865L161.799 82.8433C161.717 83.0489 161.621 83.3001 161.53 83.6016C161.439 83.9032 161.319 84.2367 161.228 84.6204C161.18 84.8123 161.128 85.0133 161.075 85.2189C161.022 85.4244 160.989 85.6483 160.941 85.8767C160.835 86.3335 160.773 86.8178 160.701 87.3295C160.564 88.4498 160.514 89.5782 160.552 90.7055C160.599 91.8338 160.73 92.9574 160.945 94.0678C161.06 94.5749 161.161 95.0592 161.295 95.5023C161.362 95.7262 161.415 95.9591 161.482 96.1465L161.679 96.7358C161.799 97.1104 161.942 97.4393 162.057 97.7317C162.172 98.0241 162.283 98.2708 162.383 98.4672L162.604 98.924C162.627 98.9783 162.656 99.0303 162.69 99.0794C162.69 99.0794 162.69 99.02 162.628 98.9103C162.565 98.8007 162.513 98.6362 162.426 98.4535C162.34 98.2708 162.235 97.9966 162.129 97.7088C162.024 97.421 161.88 97.0875 161.77 96.7129L161.578 96.1236C161.516 95.9226 161.463 95.7033 161.401 95.4795C161.271 95.0226 161.175 94.5658 161.065 94.0496C160.86 92.9457 160.73 91.8301 160.677 90.7101C160.643 89.5891 160.69 88.4672 160.816 87.3523C160.888 86.8406 160.945 86.3518 161.041 85.9041C161.089 85.6757 161.123 85.4473 161.171 85.2508C161.219 85.0544 161.271 84.8397 161.314 84.6524C161.401 84.2686 161.511 83.9306 161.597 83.6291C161.684 83.3275 161.77 83.0763 161.842 82.8661L162.005 82.3865C162.029 82.3354 162.047 82.2817 162.057 82.2266Z" fill="#263238"/>
<path d="M152.75 78.874C152.75 78.874 152.75 78.874 152.75 78.9334V79.0979C152.779 79.2441 152.812 79.4588 152.875 79.7329C152.994 80.2811 153.196 81.0668 153.507 82.0171C153.819 82.9673 154.24 84.0911 154.744 85.3246C155.247 86.5581 155.827 87.9012 156.378 89.3311C156.929 90.761 157.37 92.1498 157.778 93.4152C158.185 94.6807 158.559 95.8136 158.928 96.7547C159.205 97.4958 159.525 98.2217 159.887 98.9293C160.011 99.1805 160.126 99.3861 160.203 99.5003L160.289 99.6465C160.298 99.663 160.31 99.6783 160.323 99.6922C160.317 99.6732 160.309 99.6549 160.299 99.6374L160.227 99.4866C160.16 99.3541 160.054 99.1622 159.934 98.911C159.576 98.1978 159.256 97.4674 158.976 96.7227C158.616 95.7816 158.247 94.6487 157.85 93.3832C157.452 92.1178 157.02 90.7199 156.46 89.2717C155.899 87.8235 155.319 86.4987 154.816 85.2698C154.312 84.0409 153.857 82.9262 153.55 81.976C153.244 81.0257 153.018 80.24 152.879 79.6918C152.812 79.4222 152.769 79.2075 152.736 79.0659L152.692 78.9014L152.75 78.874Z" fill="#263238"/>
<path d="M171.917 76.0641C172.003 75.9868 172.113 75.9387 172.231 75.9274C172.349 75.9161 172.467 75.9421 172.567 76.0015C172.668 76.0609 172.745 76.1503 172.787 76.2558C172.829 76.3613 172.833 76.477 172.798 76.5849C172.582 77.2385 172.321 77.8779 172.017 78.4991C171.159 80.2305 168.662 86.4389 167.474 89.8515C166.285 93.2641 164.646 99.6233 164.646 99.6233L162.134 99.235C162.134 99.235 164.43 88.7825 166.673 85.0136C168.475 81.9847 170.277 77.6219 171.917 76.0641Z" fill="#455A64"/>
<path d="M166.788 91.9854C166.734 92.0748 166.69 92.1698 166.659 92.2686C166.587 92.4559 166.486 92.7254 166.371 93.0726C166.141 93.7533 165.858 94.7081 165.571 95.768C165.283 96.8278 165.048 97.7872 164.885 98.4862C164.808 98.8197 164.746 99.0938 164.698 99.3176C164.669 99.4174 164.651 99.5201 164.646 99.6237C164.691 99.5287 164.725 99.4291 164.746 99.3268C164.808 99.112 164.885 98.8334 164.976 98.509L165.7 95.8C165.983 94.7401 166.251 93.7853 166.462 93.1C166.558 92.7757 166.644 92.5016 166.706 92.2869C166.746 92.1897 166.773 92.0885 166.788 91.9854Z" fill="#263238"/>
<path d="M163.385 99.4319V99.3679L163.414 99.1806C163.438 99.0116 163.462 98.7695 163.514 98.4542C163.606 97.8238 163.773 96.9193 164.042 95.8183C164.362 94.5247 164.754 93.2484 165.216 91.9945C165.729 90.5783 166.376 89.0479 167.109 87.4627C168.585 84.2968 170.057 81.4918 171.025 79.4132C171.504 78.3807 171.897 77.5356 172.146 76.9463C172.271 76.6493 172.362 76.4209 172.429 76.2656C172.458 76.1925 172.477 76.1331 172.496 76.0874C172.516 76.0417 172.52 76.0234 172.496 76.0234L172.468 76.0828C172.444 76.1285 172.42 76.1833 172.386 76.2564C172.309 76.4163 172.209 76.6402 172.079 76.9234C171.816 77.5082 171.423 78.3487 170.924 79.3766C169.932 81.4415 168.446 84.242 166.965 87.4124C166.232 88.9977 165.59 90.5327 165.082 91.958C164.622 93.2151 164.238 94.4964 163.931 95.7954C163.725 96.6719 163.565 97.5578 163.452 98.4497C163.409 98.7603 163.395 99.0116 163.375 99.176V99.3633C163.379 99.409 163.382 99.4319 163.385 99.4319Z" fill="#263238"/>
<path d="M162.134 99.2353C162.175 99.1038 162.203 98.9694 162.221 98.8333C162.268 98.5546 162.336 98.1846 162.417 97.7369C162.59 96.8232 162.853 95.5304 163.232 94.1416C163.61 92.7528 164.032 91.5148 164.358 90.6285C164.516 90.1991 164.651 89.8473 164.751 89.5778C164.805 89.4519 164.849 89.322 164.881 89.1895C164.812 89.3085 164.753 89.4322 164.703 89.5595C164.593 89.8016 164.44 90.1534 164.267 90.5965C163.817 91.748 163.428 92.9205 163.102 94.1096C162.724 95.4801 162.475 96.7867 162.321 97.7186C162.249 98.1755 162.197 98.5638 162.168 98.8288C162.146 98.9633 162.135 99.0992 162.134 99.2353Z" fill="#263238"/>
<path d="M156.987 110.268H166.779V98.8923H156.987V110.268Z" fill="#15B86C"/>
<g opacity="0.3">
<path d="M156.987 110.269H166.779V98.8933H156.987V110.269Z" fill="black"/>
</g>
<path d="M160.107 110.268H168.796V98.8923H160.107V110.268Z" fill="#15B86C"/>
<path d="M78.7741 5.20955L60.5928 10.7568L64.5161 22.439L82.6974 16.8918L78.7741 5.20955Z" fill="#15B86C"/>
<path d="M78.8818 5.32324C78.8486 5.39659 78.8085 5.46693 78.762 5.53339C78.671 5.67958 78.5511 5.87145 78.3978 6.109L77.0318 8.2196L72.4546 15.159L72.4162 15.2138H72.3491L72.191 15.1544L64.043 12.1758L61.5843 11.2622L60.918 11.0063C60.8384 10.9795 60.7614 10.9458 60.688 10.9058C60.77 10.9213 60.8502 10.9442 60.9276 10.9743L61.6082 11.2028L64.0862 12.0753L72.2341 15.0128L72.397 15.0676L72.2916 15.1042L76.9167 8.18762C77.5063 7.31963 77.9856 6.61153 78.3307 6.109L78.7189 5.54709C78.766 5.46791 78.8205 5.39299 78.8818 5.32324Z" fill="#263238"/>
<path d="M64.6085 22.5548C64.5654 22.5548 65.3946 20.5173 66.4586 18.0458C67.5226 15.5743 68.4285 13.5824 68.4716 13.6007C68.5148 13.619 67.6904 15.6382 66.6216 18.1097C65.5527 20.5812 64.6661 22.573 64.6085 22.5548Z" fill="#263238"/>
<path d="M74.4818 11.6092C74.5105 11.5727 76.3989 12.7513 78.6899 14.2406C80.981 15.7299 82.831 16.9817 82.8023 16.9817C82.7735 16.9817 80.8851 15.8441 78.5941 14.3548C76.3031 12.8655 74.453 11.6503 74.4818 11.6092Z" fill="#263238"/>
<path d="M159.105 30.5353L145.575 25.0852C145.132 24.9004 144.784 24.5574 144.605 24.1301C144.425 23.7028 144.429 23.2255 144.616 22.801L152.553 4.94769C152.746 4.52542 153.106 4.19268 153.554 4.02163C154.003 3.85058 154.504 3.85503 154.949 4.03401L163.534 7.49686L167.272 16.7067L161.521 29.649C161.321 30.0701 160.956 30.3993 160.504 30.5653C160.052 30.7312 159.549 30.7204 159.105 30.5353Z" fill="#15B86C"/>
<path d="M163.529 7.45117L161.295 12.4764C161.207 12.6734 161.16 12.8851 161.158 13.0994C161.156 13.3136 161.198 13.5262 161.282 13.7249C161.366 13.9235 161.491 14.1044 161.648 14.2571C161.806 14.4097 161.994 14.5312 162.201 14.6144L167.267 16.661L163.529 7.45117Z" fill="#15B86C"/>
<g opacity="0.2">
<path d="M161.166 12.9473C161.003 13.3294 160.981 13.7526 161.103 14.1482C161.225 14.5439 161.483 14.8886 161.837 15.1264C161.884 15.164 161.934 15.199 161.985 15.2315C162.599 15.6106 166.625 18.1095 166.668 18.0136L167.267 16.6431L162.201 14.5965C162.201 14.5965 160.945 14.062 161.166 12.9473Z" fill="black"/>
</g>
<g opacity="0.3">
<path d="M163.529 7.45117L161.295 12.4764C161.207 12.6734 161.16 12.8851 161.158 13.0994C161.156 13.3136 161.198 13.5262 161.282 13.7249C161.366 13.9235 161.491 14.1044 161.648 14.2571C161.806 14.4097 161.994 14.5312 162.201 14.6144L167.267 16.661L163.529 7.45117Z" fill="white"/>
</g>
<path d="M160.251 11.8365C159.16 11.5339 158.096 11.1505 157.068 10.6899C156.006 10.3077 154.976 9.84954 153.986 9.31934C155.079 9.619 156.145 10.0025 157.174 10.466C158.235 10.8453 159.264 11.3035 160.251 11.8365Z" fill="#FAFAFA"/>
<path d="M163.031 16.2866C163.002 16.3506 160.672 15.4734 157.825 14.3222C154.979 13.171 152.697 12.1933 152.726 12.1248C152.755 12.0563 155.084 12.9426 157.931 14.0892C160.778 15.2359 163.059 16.2227 163.031 16.2866Z" fill="#FAFAFA"/>
<path d="M162.906 19.0368C162.877 19.1007 160.337 18.1231 157.236 16.8851C154.135 15.647 151.643 14.578 151.672 14.5004C151.7 14.4227 154.236 15.414 157.342 16.6521C160.447 17.8901 162.935 18.9683 162.906 19.0368Z" fill="#FAFAFA"/>
<path d="M161.904 21.2757C161.875 21.3397 159.34 20.362 156.239 19.124C153.138 17.886 150.646 16.8033 150.67 16.7393C150.694 16.6753 153.239 17.653 156.34 18.891C159.441 20.129 161.938 21.2072 161.904 21.2757Z" fill="#FAFAFA"/>
<path d="M160.917 23.5094C160.888 23.578 158.348 22.5957 155.247 21.3623C152.146 20.1288 149.654 19.0415 149.682 18.9776C149.711 18.9136 152.247 19.8913 155.352 21.1293C158.458 22.3673 160.946 23.4455 160.917 23.5094Z" fill="#FAFAFA"/>
<path d="M159.92 25.7477C159.891 25.8162 157.351 24.834 154.25 23.6006C151.149 22.3671 148.657 21.2798 148.685 21.2159C148.714 21.1519 151.254 22.1295 154.355 23.363C157.456 24.5965 159.949 25.6837 159.92 25.7477Z" fill="#FAFAFA"/>
<path d="M113.601 34.3222C123.488 34.3222 131.503 26.6828 131.503 17.2592C131.503 7.83563 123.488 0.196289 113.601 0.196289C103.714 0.196289 95.6997 7.83563 95.6997 17.2592C95.6997 26.6828 103.714 34.3222 113.601 34.3222Z" fill="white"/>
<path d="M131.503 17.2595C131.503 17.2595 131.503 17.1681 131.474 16.9854C131.445 16.8026 131.44 16.5285 131.416 16.1722C131.416 15.994 131.392 15.7976 131.378 15.5783C131.364 15.359 131.306 15.1215 131.268 14.8656C131.187 14.2716 131.062 13.6838 130.894 13.1068C130.476 11.511 129.807 9.98461 128.91 8.57952C127.61 6.51541 125.866 4.73703 123.794 3.36144C121.721 1.98585 119.366 1.04423 116.884 0.598541C116.142 0.466983 115.391 0.384555 114.636 0.351847C114.253 0.351847 113.865 0.301594 113.476 0.306162L112.297 0.365552C112.101 0.365552 111.9 0.365553 111.703 0.4021L111.109 0.488899C110.716 0.552856 110.313 0.59854 109.915 0.676203C108.284 1.02554 106.706 1.5753 105.223 2.31169C104.849 2.50356 104.49 2.73198 104.116 2.94212C103.934 3.05177 103.742 3.1477 103.565 3.27105L103.042 3.64566C101.591 4.65016 100.322 5.87385 99.2846 7.26839L98.8772 7.78919L98.5178 8.34653L98.1583 8.8856C98.0316 9.06924 97.9194 9.26164 97.8228 9.46122C97.6263 9.85867 97.425 10.2561 97.2189 10.6581L96.7396 11.9099C96.1547 13.6394 95.8445 15.4425 95.8194 17.2595C95.8446 19.0749 96.1547 20.8766 96.7396 22.6045C96.8978 23.0248 97.0607 23.4451 97.2189 23.8608C97.3771 24.2765 97.6215 24.6603 97.8228 25.0531C97.9183 25.2547 98.0305 25.4487 98.1583 25.6333L98.5178 26.1952L98.8725 26.7526L99.2846 27.2734C99.8163 27.9657 100.398 28.6221 101.024 29.2378C101.658 29.8249 102.333 30.3712 103.042 30.8733L103.565 31.2479C103.742 31.3712 103.934 31.4672 104.116 31.5768C104.49 31.787 104.849 32.0336 105.223 32.2072C106.706 32.9436 108.284 33.4934 109.915 33.8427C110.313 33.925 110.716 33.9661 111.114 34.03L111.703 34.1168C111.904 34.1168 112.101 34.1168 112.297 34.1534L113.496 34.2219C113.884 34.2219 114.272 34.1899 114.655 34.1808C115.41 34.1466 116.161 34.0626 116.903 33.9295C119.386 33.4855 121.741 32.5445 123.814 31.1688C125.887 29.793 127.63 28.0138 128.929 25.9485C129.818 24.5452 130.481 23.022 130.894 21.4304C131.062 20.8534 131.187 20.2656 131.268 19.6716C131.306 19.4157 131.354 19.1782 131.378 18.9589C131.402 18.7396 131.407 18.5432 131.416 18.365C131.442 18.0117 131.461 17.7422 131.474 17.5564C131.474 17.3737 131.503 17.2777 131.503 17.2777C131.503 17.2777 131.503 17.3737 131.503 17.5564C131.503 17.7391 131.503 18.0133 131.474 18.365C131.474 18.5478 131.474 18.7442 131.445 18.968C131.416 19.1919 131.383 19.4249 131.344 19.6807C131.271 20.2713 131.152 20.8561 130.99 21.4304C130.584 23.0393 129.923 24.5798 129.029 25.9988C127.731 28.0925 125.98 29.8988 123.892 31.2977C121.805 32.6966 119.429 33.656 116.923 34.1123C116.172 34.2466 115.413 34.3321 114.651 34.3681C114.262 34.3681 113.869 34.4184 113.476 34.4138L112.283 34.359C112.082 34.359 111.88 34.359 111.679 34.3224L111.099 34.2219C110.697 34.158 110.289 34.1168 109.887 34.0346C109.073 33.8647 108.272 33.6419 107.49 33.3676C106.683 33.0932 105.897 32.7666 105.137 32.39C104.758 32.1935 104.389 31.9651 104.015 31.7504C103.828 31.6362 103.632 31.5403 103.454 31.4169L102.927 31.0377C102.208 30.5296 101.524 29.9772 100.881 29.384C100.244 28.7592 99.6533 28.0937 99.1121 27.3922L98.6951 26.8668L98.3309 26.3003L97.9714 25.7293C97.8412 25.5436 97.7274 25.348 97.6311 25.1445C97.4298 24.7425 97.2237 24.3405 97.0224 23.9339L96.5431 22.6593C95.9523 20.9074 95.6389 19.0813 95.6133 17.2412C95.628 15.4072 95.9301 13.5857 96.5096 11.8368L96.9888 10.5668L97.6023 9.35158C97.6981 9.14865 97.8102 8.95314 97.9378 8.76682L98.3021 8.20035L98.6616 7.63386L99.0785 7.10393C99.6211 6.40476 100.212 5.74087 100.847 5.11668C101.491 4.52346 102.174 3.97102 102.894 3.46292L103.421 3.08375C103.598 2.9604 103.795 2.86446 103.982 2.75025C104.356 2.54011 104.725 2.29341 105.103 2.11525C106.607 1.37253 108.205 0.818205 109.858 0.466057C110.26 0.388394 110.668 0.34271 111.07 0.278753L111.67 0.191952C111.871 0.191952 112.072 0.191953 112.273 0.155406L113.467 0.100586C113.86 0.100586 114.248 0.132564 114.636 0.146269C115.4 0.184271 116.161 0.26973 116.913 0.4021C119.419 0.858341 121.795 1.81778 123.883 3.21667C125.97 4.61557 127.721 6.42187 129.02 8.51556C129.913 9.93459 130.574 11.4751 130.98 13.084C131.142 13.6659 131.259 14.2583 131.33 14.8565C131.368 15.1169 131.411 15.3544 131.431 15.5737L131.459 16.1722C131.459 16.524 131.483 16.7935 131.488 16.9854C131.493 17.1772 131.503 17.2595 131.503 17.2595Z" fill="#263238"/>
<path d="M122.09 16.7801C121.855 16.8622 121.615 16.9279 121.371 16.9765L119.372 17.4334C117.68 17.808 115.332 18.3151 112.705 18.8633L112.557 18.8953V18.2328C112.557 15.5603 112.557 13.1391 112.59 11.3803C112.59 10.5397 112.624 9.84071 112.633 9.3062C112.626 9.05257 112.642 8.79883 112.681 8.54785C112.717 8.79912 112.733 9.05263 112.729 9.3062C112.729 9.84071 112.753 10.5397 112.768 11.3803C112.768 13.1345 112.806 15.5558 112.806 18.2328V18.7308L112.652 18.612C115.279 18.0684 117.632 17.5887 119.334 17.2415L121.347 16.8623C121.591 16.8131 121.84 16.7855 122.09 16.7801Z" fill="#263238"/>
<path d="M132.783 24.2947C132.8 24.1994 132.827 24.1061 132.864 24.016C132.917 23.8379 133.027 23.5592 133.123 23.2394C133.431 22.281 133.665 21.3022 133.823 20.3111C134.37 17.0361 134.043 13.6823 132.87 10.56C131.697 7.43775 129.717 4.64792 127.113 2.44866C126.332 1.78343 125.502 1.17272 124.63 0.621302C124.323 0.415724 124.069 0.278672 123.911 0.164462C123.823 0.116232 123.74 0.0612265 123.662 0C123.759 0.02764 123.851 0.0692338 123.935 0.123347C124.103 0.214715 124.366 0.33806 124.683 0.534501C125.583 1.06273 126.436 1.66175 127.232 2.32531C129.892 4.51875 131.911 7.33068 133.094 10.4878C134.276 13.645 134.582 17.04 133.981 20.343C133.811 21.3328 133.556 22.3076 133.219 23.2577C133.104 23.5957 132.979 23.8516 132.912 24.0252C132.88 24.1194 132.836 24.2099 132.783 24.2947Z" fill="#263238"/>
<path d="M136.214 15.8983C136.176 15.8983 136.152 15.2176 136.008 14.1303C135.816 12.7165 135.479 11.3241 135.002 9.97305C134.52 8.6277 133.898 7.33149 133.147 6.10362C132.562 5.15796 132.14 4.60976 132.188 4.58691C132.317 4.68983 132.43 4.80982 132.524 4.94325C132.72 5.18994 133.003 5.55084 133.31 6.01225C134.125 7.22711 134.785 8.53079 135.275 9.89538C135.768 11.2598 136.09 12.6753 136.233 14.112C136.286 14.6602 136.301 15.1079 136.301 15.4186C136.298 15.5818 136.269 15.7437 136.214 15.8983Z" fill="#263238"/>
<path d="M95.7287 7.37793C95.7001 7.46908 95.6599 7.55654 95.6089 7.63833C95.5226 7.80736 95.374 8.04491 95.2207 8.36927C93.4158 11.787 92.6875 15.6297 93.1239 19.4334C93.5602 23.237 95.1424 26.8389 97.6794 29.8042C98.3398 30.5826 99.0574 31.3154 99.8266 31.997C100.095 32.2437 100.306 32.4173 100.464 32.5452C100.541 32.607 100.613 32.6742 100.68 32.7462C100.59 32.7015 100.506 32.6463 100.431 32.5817C100.277 32.4675 100.042 32.3031 99.7643 32.0655C98.9638 31.406 98.2216 30.6848 97.5452 29.9092C95.2833 27.3413 93.7576 24.2589 93.1168 20.9621C92.4759 17.6653 92.7417 14.2664 93.8882 11.0966C94.2263 10.1418 94.648 9.21568 95.1488 8.32815C95.3165 8.00837 95.4795 7.77538 95.5753 7.61548C95.6195 7.53239 95.6708 7.45293 95.7287 7.37793Z" fill="#263238"/>
<path d="M90.9403 15.1494C90.9834 15.1494 90.8923 15.8301 90.854 16.9265C90.8031 18.3503 90.9043 19.7754 91.1559 21.1797C91.4127 22.5854 91.8173 23.9629 92.3638 25.2912C92.7807 26.31 93.1067 26.9176 93.0683 26.9359C92.9605 26.8122 92.8702 26.6755 92.7999 26.5293C92.6418 26.2597 92.4309 25.8623 92.2008 25.3552C91.599 24.0387 91.1646 22.6584 90.9067 21.2436C90.6522 19.8228 90.575 18.3783 90.6767 16.9402C90.7198 16.3874 90.7773 15.9443 90.83 15.6382C90.8435 15.4713 90.8805 15.3069 90.9403 15.1494Z" fill="#263238"/>
<path d="M128.421 20.06C127.745 19.9275 127.199 19.8133 127.199 19.8087C127.199 19.8042 127.75 19.9047 128.426 20.0372C129.102 20.1696 129.648 20.2793 129.643 20.2839C129.638 20.2884 129.092 20.2108 128.421 20.06Z" fill="#263238"/>
<path d="M126.686 24.3769C126.092 24.0434 125.612 23.7693 125.612 23.7647C125.612 23.7601 126.092 24.0251 126.696 24.3586C127.299 24.6921 127.769 24.9662 127.764 24.9708C127.76 24.9753 127.275 24.7104 126.686 24.3769Z" fill="#263238"/>
<path d="M123.561 27.9039C123.11 27.4014 122.751 26.9902 122.755 26.9902C122.76 26.9902 123.129 27.3877 123.575 27.9039C124.021 28.4201 124.385 28.8176 124.375 28.8176C124.366 28.8176 124.04 28.4019 123.561 27.9039Z" fill="#263238"/>
<path d="M119.435 30.2791C119.18 29.6669 118.979 29.1689 118.984 29.1689C118.989 29.1689 119.2 29.6578 119.463 30.2699C119.727 30.8821 119.919 31.3755 119.909 31.38C119.899 31.3846 119.689 30.8867 119.435 30.2791Z" fill="#263238"/>
<path d="M114.708 31.2434C114.68 30.5856 114.66 30.0557 114.665 30.0557C114.67 30.0557 114.704 30.5856 114.732 31.2434C114.761 31.9013 114.785 32.4312 114.78 32.4312C114.776 32.4312 114.742 31.9013 114.708 31.2434Z" fill="#263238"/>
<path d="M109.911 30.6903C110.102 30.0598 110.26 29.5527 110.27 29.5527C110.28 29.5527 110.126 30.069 109.935 30.6994C109.743 31.3298 109.58 31.8369 109.57 31.8369C109.561 31.8369 109.714 31.3207 109.911 30.6903Z" fill="#263238"/>
<path d="M105.554 28.6896C105.952 28.1505 106.278 27.7211 106.287 27.7256C106.297 27.7302 105.971 28.1825 105.573 28.7033C105.175 29.2241 104.869 29.6535 104.869 29.6535C104.869 29.6535 105.156 29.2241 105.554 28.6896Z" fill="#263238"/>
<path d="M102.127 25.4457C102.683 25.0574 103.138 24.7513 103.143 24.7559C103.148 24.7605 102.698 25.0757 102.137 25.464C101.576 25.8523 101.125 26.1538 101.121 26.1493C101.116 26.1447 101.566 25.8295 102.127 25.4457Z" fill="#263238"/>
<path d="M99.9801 21.3167C100.642 21.1248 101.178 20.974 101.178 20.9786C101.178 20.9832 100.646 21.1476 99.9849 21.3395C99.3235 21.5314 98.7915 21.6776 98.7915 21.673C98.7915 21.6684 99.3235 21.5085 99.9801 21.3167Z" fill="#263238"/>
<path d="M99.3619 16.7478C100.052 16.7478 100.608 16.7933 100.608 16.8024C100.608 16.8114 100.047 16.8024 99.3619 16.7705C98.6765 16.7387 98.111 16.7205 98.1158 16.716C98.1205 16.7114 98.6717 16.7205 99.3619 16.7478Z" fill="#263238"/>
<path d="M100.33 12.2299C100.977 12.4674 101.495 12.6593 101.495 12.6867C101.495 12.7141 100.968 12.504 100.321 12.271C99.6735 12.038 99.1606 11.8416 99.1606 11.837C99.1606 11.8324 99.6879 11.9969 100.33 12.2299Z" fill="#263238"/>
<path d="M102.788 8.25969C103.315 8.68455 103.747 9.03175 103.747 9.03632C103.747 9.04088 103.311 8.70282 102.788 8.27796C102.266 7.8531 101.83 7.51047 101.83 7.50591C101.83 7.50134 102.256 7.8394 102.788 8.25969Z" fill="#263238"/>
<path d="M106.46 5.27203C106.815 5.83394 107.102 6.29078 107.097 6.29535C107.093 6.29992 106.795 5.83851 106.441 5.28117C106.086 4.72382 105.798 4.26241 105.803 4.25785C105.808 4.25328 106.105 4.71012 106.46 5.27203Z" fill="#263238"/>
<path d="M110.951 3.57251C111.095 4.21665 111.21 4.73745 111.205 4.73745C111.2 4.73745 111.076 4.22122 110.927 3.57708C110.778 2.93294 110.668 2.41671 110.678 2.41214C110.687 2.40757 110.807 2.93294 110.951 3.57251Z" fill="#263238"/>
<path d="M115.777 3.36192C115.696 4.0152 115.624 4.54057 115.619 4.54057C115.614 4.54057 115.672 4.01064 115.758 3.35736C115.844 2.70408 115.911 2.17871 115.916 2.17871C115.921 2.17871 115.863 2.69951 115.777 3.36192Z" fill="#263238"/>
<path d="M120.421 4.65532C120.124 5.24464 119.875 5.72433 119.87 5.71976C119.865 5.71519 120.1 5.23551 120.397 4.64162C120.695 4.04773 120.944 3.57261 120.953 3.57718C120.963 3.58175 120.719 4.07057 120.421 4.65532Z" fill="#263238"/>
<path d="M124.366 7.31429C123.886 7.77113 123.484 8.15488 123.479 8.15031C123.474 8.14574 123.867 7.76199 124.351 7.29602C124.835 6.83004 125.233 6.45543 125.238 6.46C125.243 6.46457 124.855 6.84832 124.366 7.31429Z" fill="#263238"/>
<path d="M127.194 11.0469C126.576 11.3393 126.073 11.5723 126.073 11.5677C126.073 11.5632 126.552 11.3211 127.185 11.0287C127.817 10.7363 128.306 10.5033 128.306 10.5079C128.306 10.5124 127.813 10.7546 127.194 11.0469Z" fill="#263238"/>
<path d="M128.603 15.4554L127.362 15.597C127.362 15.597 127.913 15.5148 128.598 15.4325C129.284 15.3503 129.835 15.2818 129.835 15.2863C129.835 15.2909 129.284 15.3686 128.603 15.4554Z" fill="#263238"/>
<path d="M137.461 13.8789C137.195 14.6503 136.851 15.3954 136.435 16.1037L136.406 16.154L136.311 16.3413L136.191 16.1677C135.708 15.5261 135.294 14.8405 134.954 14.121C135.507 14.7106 135.998 15.3502 136.421 16.0306H136.205L136.234 15.9758C136.571 15.2406 136.982 14.5384 137.461 13.8789Z" fill="#263238"/>
<path d="M145.608 52.459H89.2775C87.9542 52.459 86.6852 52.96 85.7495 53.8519C84.8138 54.7438 84.2881 55.9534 84.2881 57.2147C84.2881 58.476 84.8138 59.6856 85.7495 60.5775C86.6852 61.4693 87.9542 61.9704 89.2775 61.9704H115.638L121.539 67.3291V61.9704H145.608C146.264 61.9704 146.913 61.8474 147.518 61.6084C148.123 61.3694 148.673 61.0191 149.137 60.5775C149.6 60.1359 149.967 59.6116 150.218 59.0346C150.469 58.4576 150.598 57.8392 150.598 57.2147C150.598 56.5902 150.469 55.9717 150.218 55.3948C149.967 54.8178 149.6 54.2935 149.137 53.8519C148.673 53.4103 148.123 53.06 147.518 52.821C146.913 52.582 146.264 52.459 145.608 52.459Z" fill="#FAFAFA"/>
<path d="M145.608 52.4598H145.791C145.973 52.4616 146.156 52.4753 146.337 52.5009C147.049 52.5918 147.731 52.8304 148.336 53.1999C148.914 53.5508 149.411 54.0109 149.795 54.5517C150.18 55.0926 150.445 55.7028 150.572 56.3447C150.7 56.9867 150.689 57.6468 150.539 58.2845C150.39 58.9221 150.104 59.5238 149.702 60.0524C149.157 60.7751 148.414 61.341 147.554 61.6879C147.094 61.8657 146.61 61.984 146.116 62.0397C145.604 62.0762 145.096 62.0625 144.568 62.0671H137.782H121.529L121.639 61.962C121.639 63.6432 121.639 65.4614 121.639 67.3208V67.572L121.447 67.3984L115.543 62.0397L115.624 62.0717H93.222H89.311C88.0054 62.0847 86.7441 61.6207 85.7861 60.7751C84.8281 59.9295 84.2462 58.7664 84.1597 57.5246C84.0732 56.2828 84.4887 55.0566 85.321 54.0977C86.1533 53.1388 87.3392 52.52 88.6352 52.3684C89.2582 52.3045 89.8574 52.3364 90.4613 52.3273H99.2323L123.369 52.3547L139.665 52.3913L144.089 52.4141H145.239C145.498 52.4141 145.632 52.4141 145.632 52.4141H145.239H144.089L139.665 52.4369L123.369 52.4781H99.2323H90.4613C89.8621 52.4781 89.2487 52.4781 88.6687 52.5192C87.4682 52.6614 86.367 53.2269 85.5821 54.1044C84.9775 54.7806 84.5893 55.6079 84.4634 56.4881C84.3375 57.3684 84.4793 58.2646 84.8719 59.0703C85.2645 59.876 85.8915 60.5574 86.6784 61.0335C87.4652 61.5097 88.3789 61.7606 89.311 61.7565H93.222H115.624H115.672L115.705 61.7839L121.606 67.1472L121.414 67.2248C121.414 65.3655 121.414 63.5473 121.414 61.8661V61.7656H121.519H137.772H144.559C145.081 61.7656 145.599 61.7656 146.092 61.7656C146.574 61.7146 147.046 61.6024 147.497 61.4321C148.49 61.0335 149.32 60.3367 149.861 59.4475C150.401 58.5584 150.622 57.5254 150.49 56.5056C150.358 55.4858 149.881 54.5349 149.131 53.7972C148.38 53.0596 147.397 52.5755 146.332 52.4187C145.858 52.4644 145.608 52.4963 145.608 52.4598Z" fill="#263238"/>
<path d="M113.913 60.5772H89.2439C88.7805 60.5778 88.3215 60.4912 87.8932 60.3225C87.4649 60.1537 87.0758 59.9061 86.7481 59.5937C86.4204 59.2814 86.1606 58.9105 85.9836 58.5023C85.8065 58.0941 85.7157 57.6566 85.7163 57.2148C85.7189 56.3251 86.0918 55.4727 86.7532 54.8448C87.4146 54.217 88.3104 53.865 89.2439 53.8662H113.913C114.376 53.8656 114.835 53.952 115.263 54.1205C115.69 54.289 116.079 54.5362 116.407 54.8481C116.735 55.1599 116.995 55.5303 117.172 55.938C117.349 56.3456 117.441 56.7827 117.441 57.224C117.44 57.6649 117.348 58.1014 117.171 58.5086C116.993 58.9157 116.733 59.2856 116.405 59.5969C116.078 59.9083 115.689 60.1551 115.261 60.3233C114.834 60.4915 114.376 60.5778 113.913 60.5772Z" fill="#15B86C"/>
<path d="M115.978 47.5576L115.144 49.988H114.512L113.951 48.3434L113.371 49.988H112.743L111.904 47.5576H112.537L113.112 49.2662L113.711 47.5576H114.258L114.842 49.2799L115.432 47.5576H115.978Z" fill="#263238"/>
<path d="M116.117 48.7726C116.102 48.5071 116.171 48.2432 116.314 48.0152C116.458 47.7872 116.67 47.6055 116.923 47.4936C117.176 47.3816 117.459 47.3447 117.734 47.3874C118.01 47.4301 118.265 47.5506 118.468 47.7333C118.671 47.916 118.811 48.1524 118.872 48.4121C118.932 48.6718 118.909 48.9427 118.806 49.1899C118.703 49.4371 118.525 49.6492 118.294 49.7988C118.064 49.9483 117.791 50.0285 117.512 50.0289C117.333 50.0389 117.153 50.0138 116.984 49.9551C116.815 49.8965 116.661 49.8055 116.53 49.6878C116.399 49.5702 116.295 49.4283 116.224 49.2709C116.154 49.1135 116.117 48.9439 116.117 48.7726ZM118.308 48.7726C118.304 48.6235 118.254 48.4787 118.164 48.3564C118.075 48.2341 117.949 48.1398 117.804 48.0851C117.658 48.0305 117.498 48.0181 117.345 48.0494C117.192 48.0807 117.052 48.1543 116.943 48.2611C116.834 48.3678 116.76 48.5029 116.731 48.6495C116.701 48.7961 116.718 48.9476 116.779 49.0852C116.84 49.2227 116.942 49.34 117.072 49.4226C117.202 49.5051 117.356 49.5492 117.512 49.5492C117.617 49.5494 117.722 49.5291 117.818 49.4896C117.915 49.4502 118.002 49.3924 118.075 49.3197C118.148 49.2471 118.204 49.1611 118.241 49.0671C118.277 48.973 118.294 48.8728 118.289 48.7726H118.308Z" fill="#263238"/>
<path d="M120.978 49.988L120.499 49.3119H119.957V49.988H119.368V47.5576H120.47C121.151 47.5576 121.577 47.8957 121.577 48.4393C121.585 48.6038 121.538 48.7663 121.443 48.904C121.349 49.0417 121.211 49.1476 121.05 49.2068L121.625 49.988H120.978ZM120.422 48.0145H119.943V48.8642H120.422C120.782 48.8642 120.964 48.7043 120.964 48.4393C120.964 48.1743 120.782 48.0145 120.422 48.0145Z" fill="#263238"/>
<path d="M122.957 49.0332L122.612 49.3713V49.988H122.027V47.5576H122.602V48.6906L123.734 47.5576H124.39L123.331 48.6403L124.453 49.988H123.762L122.957 49.0332Z" fill="#263238"/>
<path d="M139.147 58.1058H138.418L138.241 58.9829H137.723L137.91 58.1058H135.84L135.907 57.754L138.275 55.4287H138.898L136.631 57.6718H138.035L138.198 56.8997H138.677L138.514 57.6718H139.224L139.147 58.1058Z" fill="#263238"/>
<path d="M140.681 55.8719L140.374 56.8449H140.733C141.692 56.8449 142.119 57.2196 142.119 57.7952C142.119 58.5307 141.486 59.0195 140.532 59.0195C140.294 59.0328 140.055 58.9991 139.83 58.9205C139.606 58.8419 139.401 58.7201 139.229 58.5627L139.511 58.1698C139.649 58.3017 139.815 58.4044 139.998 58.4713C140.18 58.5382 140.375 58.5677 140.571 58.5581C141.213 58.5581 141.587 58.2886 141.587 57.8363C141.587 57.4845 141.323 57.2744 140.628 57.2744H139.727L140.307 55.415H142.406L142.32 55.8719H140.681Z" fill="#263238"/>
<path d="M142.732 56.5613C142.717 56.4207 142.731 56.2785 142.774 56.1433C142.817 56.008 142.888 55.8824 142.984 55.7741C143.079 55.6657 143.196 55.5768 143.329 55.5127C143.461 55.4486 143.605 55.4106 143.753 55.401C143.858 55.3969 143.962 55.4146 144.059 55.4528C144.156 55.4911 144.243 55.5489 144.314 55.6223C144.385 55.6957 144.439 55.783 144.471 55.8781C144.503 55.9732 144.514 56.0738 144.501 56.173C144.517 56.3134 144.504 56.4554 144.461 56.5907C144.419 56.726 144.348 56.8516 144.253 56.96C144.158 57.0684 144.041 57.1574 143.909 57.2216C143.777 57.2857 143.633 57.3238 143.485 57.3334C143.38 57.3373 143.275 57.3196 143.178 57.2814C143.081 57.2432 142.994 57.1855 142.923 57.1121C142.851 57.0388 142.797 56.9516 142.764 56.8566C142.731 56.7615 142.721 56.6608 142.732 56.5613ZM146.039 55.4284H146.466L143.212 58.9826H142.775L146.039 55.4284ZM144.17 56.2004C144.17 55.8624 144.007 55.6888 143.739 55.6888C143.308 55.6888 143.097 56.1456 143.097 56.5339C143.097 56.9222 143.26 57.0456 143.528 57.0456C143.955 57.0638 144.17 56.607 144.17 56.2004ZM144.76 58.2379C144.743 58.0975 144.757 57.9553 144.8 57.82C144.843 57.6847 144.914 57.5592 145.01 57.451C145.105 57.3429 145.223 57.2544 145.355 57.191C145.488 57.1276 145.633 57.0905 145.781 57.0821C145.885 57.078 145.989 57.0957 146.086 57.1339C146.183 57.1722 146.27 57.2301 146.34 57.3036C146.411 57.3771 146.464 57.4645 146.496 57.5596C146.527 57.6547 146.537 57.7552 146.524 57.8542C146.54 57.9943 146.527 58.1361 146.484 58.2711C146.441 58.4061 146.37 58.5314 146.275 58.6395C146.18 58.7476 146.063 58.8361 145.931 58.8998C145.799 58.9635 145.655 59.001 145.507 59.01C145.402 59.0155 145.297 58.9988 145.199 58.9612C145.101 58.9236 145.013 58.8658 144.941 58.7922C144.869 58.7185 144.816 58.6306 144.783 58.5348C144.751 58.439 144.741 58.3377 144.755 58.2379H144.76ZM146.198 57.877C146.198 57.5435 146.03 57.3654 145.766 57.3654C145.34 57.3654 145.119 57.8222 145.119 58.2151C145.119 58.608 145.292 58.7267 145.551 58.7267C145.958 58.7267 146.174 58.2653 146.174 57.877H146.198Z" fill="#263238"/>
<g opacity="0.3">
<path d="M90.1978 53.8574L87.9116 60.5775H90.1978L92.3451 53.8574H90.1978Z" fill="white"/>
</g>
<g opacity="0.3">
<path d="M95.8433 53.8574L93.5571 60.5775H95.8433L97.9906 53.8574H95.8433Z" fill="white"/>
</g>
<g opacity="0.3">
<path d="M101.485 53.8574L99.2031 60.5775H101.485L103.637 53.8574H101.485Z" fill="white"/>
</g>
<g opacity="0.3">
<path d="M107.131 53.8574L104.85 60.5775H107.131L109.283 53.8574H107.131Z" fill="white"/>
</g>
<g opacity="0.3">
<path d="M112.777 53.8574L110.491 60.5775H112.777L114.929 53.8574H112.777Z" fill="white"/>
</g>
<path d="M27.2236 148.97C27.2236 148.97 39.3641 154.183 52.0077 154.183C63.712 154.183 76.1016 148.568 76.1016 148.568L27.2236 148.97Z" fill="#E0E0E0"/>
<path d="M53.3254 149.071H48.312V199.127H53.3254V149.071Z" fill="#E0E0E0"/>
<path d="M73.0627 196.189H28.5654V199.122H73.0627V196.189Z" fill="#E0E0E0"/>
<path d="M34.0107 200.086C34.0126 200.727 33.8148 201.355 33.4423 201.889C33.0699 202.423 32.5395 202.839 31.9185 203.086C31.2974 203.332 30.6136 203.397 29.9537 203.273C29.2937 203.149 28.6874 202.84 28.2114 202.387C27.7353 201.934 27.4111 201.357 27.2798 200.728C27.1484 200.099 27.2158 199.447 27.4735 198.855C27.7311 198.263 28.1674 197.756 28.7271 197.401C29.2867 197.045 29.9446 196.856 30.6173 196.856C31.5161 196.858 32.3777 197.198 33.0137 197.804C33.6497 198.409 34.0081 199.23 34.0107 200.086Z" fill="#263238"/>
<path d="M53.7861 200.087C53.7861 200.727 53.5868 201.353 53.2134 201.886C52.84 202.419 52.3093 202.834 51.6883 203.079C51.0674 203.324 50.3841 203.388 49.725 203.263C49.0658 203.138 48.4603 202.83 47.985 202.377C47.5098 201.924 47.1862 201.347 47.055 200.719C46.9239 200.09 46.9912 199.439 47.2484 198.847C47.5056 198.255 47.9412 197.749 48.5 197.394C49.0588 197.038 49.7158 196.848 50.3879 196.848C51.2892 196.848 52.1535 197.189 52.7908 197.796C53.4281 198.404 53.7861 199.228 53.7861 200.087Z" fill="#263238"/>
<path d="M76.6914 200.087C76.6914 200.727 76.4921 201.353 76.1187 201.886C75.7453 202.419 75.2145 202.834 74.5936 203.079C73.9727 203.324 73.2894 203.388 72.6302 203.263C71.9711 203.138 71.3656 202.83 70.8903 202.377C70.4151 201.924 70.0914 201.347 69.9603 200.719C69.8292 200.09 69.8965 199.439 70.1537 198.847C70.4109 198.255 70.8464 197.749 71.4053 197.394C71.9641 197.038 72.6211 196.848 73.2932 196.848C74.1944 196.848 75.0588 197.189 75.6961 197.796C76.3333 198.404 76.6914 199.228 76.6914 200.087Z" fill="#263238"/>
<path d="M52.0029 167.084H45.1826V169.775H52.0029V167.084Z" fill="#E0E0E0"/>
<path d="M46.4236 165.202H43.9409V171.657H46.4236V165.202Z" fill="#E0E0E0"/>
<path d="M26.0354 72.7842H46.3956V142.603H20.4756V78.0789C20.4781 76.6746 21.0649 75.3286 22.1071 74.336C23.1493 73.3435 24.562 72.7854 26.0354 72.7842Z" fill="#455A64"/>
<path d="M26.2071 141.543C26.14 141.543 26.0825 126.394 26.0825 107.709C26.0825 89.0244 26.14 73.8711 26.2071 73.8711C26.2742 73.8711 26.3317 89.0199 26.3317 107.709C26.3317 126.398 26.2646 141.543 26.2071 141.543Z" fill="#263238"/>
<path d="M20.4751 142.461H84.609V150.053H24.2855C23.2686 150.053 22.2933 149.668 21.5742 148.983C20.8551 148.297 20.4512 147.368 20.4512 146.399V142.442L20.4751 142.461Z" fill="#455A64"/>
<path d="M56.777 45.1858L53.9971 70.4445C53.5178 74.7433 53.7527 81.1436 60.9133 81.5457C67.144 81.4497 69.3296 76.0179 69.7657 72.0114C69.9766 70.1064 70.1492 68.5212 70.1875 68.3293C70.1875 68.3293 76.9982 68.3978 78.1869 62.0797C78.762 59.0281 79.4043 52.6506 79.9171 46.8761C80.1824 43.8837 79.2556 40.9057 77.3211 38.5353C75.3866 36.1649 72.5865 34.5758 69.4782 34.0846L68.8359 33.9796C61.8623 33.2578 57.3282 38.5068 56.777 45.1858Z" fill="#FFBE9D"/>
<path d="M70.1871 68.3149C67.121 67.821 64.2681 66.4987 61.9673 64.5049C61.9673 64.5049 63.2662 69.4616 69.9906 69.9458L70.1871 68.3149Z" fill="#EB996E"/>
<path d="M68.2456 48.4659C68.1018 48.5801 67.3876 47.9222 66.2709 47.7943C65.1542 47.6664 64.2675 48.1187 64.162 47.9725C64.1093 47.904 64.2723 47.6801 64.6413 47.47C65.1617 47.1981 65.7592 47.0909 66.3476 47.1639C66.93 47.2336 67.474 47.4784 67.9005 47.8628C68.2312 48.1598 68.3175 48.411 68.2456 48.4659Z" fill="#263238"/>
<path d="M68.1358 50.9105C68.099 51.1339 67.9723 51.3348 67.7825 51.4704C67.5927 51.6061 67.3549 51.6658 67.1197 51.6369C67.0045 51.6272 66.8925 51.5957 66.7902 51.5444C66.6878 51.493 66.5972 51.4228 66.5237 51.3378C66.4501 51.2528 66.3949 51.1547 66.3615 51.0492C66.3281 50.9436 66.317 50.8329 66.3288 50.7232C66.3667 50.5004 66.4938 50.3002 66.6832 50.1647C66.8727 50.0293 67.1099 49.9691 67.3449 49.9968C67.4601 50.0066 67.5721 50.038 67.6745 50.0893C67.7768 50.1407 67.8674 50.2109 67.941 50.2959C68.0145 50.381 68.0697 50.4791 68.1031 50.5846C68.1365 50.6901 68.1477 50.8009 68.1358 50.9105Z" fill="#263238"/>
<path d="M70.3311 56.1502C70.8967 56.076 71.4697 56.0684 72.0373 56.1274C72.3009 56.1274 72.5598 56.1274 72.6316 55.9721C72.6971 55.7175 72.6804 55.45 72.5837 55.2046L72.1476 53.1945C71.5437 50.3301 71.1554 47.9957 71.28 47.9728C71.4047 47.95 71.9846 50.257 72.5837 53.1123C72.7275 53.8204 72.8617 54.4828 72.9911 55.1361C73.1023 55.4619 73.0888 55.8148 72.9528 56.132C72.9015 56.2123 72.8317 56.2804 72.7487 56.3311C72.6656 56.3817 72.5715 56.4137 72.4735 56.4243C72.3223 56.4432 72.1693 56.4432 72.0182 56.4243C71.4461 56.3992 70.8795 56.3072 70.3311 56.1502Z" fill="#263238"/>
<path d="M68.1597 44.414C68.0255 44.6424 67.1484 44.382 66.07 44.3409C64.9916 44.2997 64.0905 44.4459 63.9851 44.2084C63.942 44.0942 64.1289 43.8932 64.5171 43.715C65.0208 43.4941 65.5743 43.3968 66.1275 43.4318C66.6813 43.4595 67.2195 43.6164 67.6948 43.8886C68.0543 44.085 68.2172 44.3043 68.1597 44.414Z" fill="#263238"/>
<path d="M78.5937 47.3236C78.4595 47.5063 77.6064 47.214 76.552 47.0906C75.4975 46.9673 74.606 47.0175 74.5102 46.8074C74.4718 46.7069 74.6636 46.5516 75.047 46.4282C75.5632 46.2844 76.1057 46.247 76.6382 46.3186C77.1756 46.3843 77.6929 46.5554 78.1576 46.8211C78.5075 47.0358 78.656 47.2368 78.5937 47.3236Z" fill="#263238"/>
<path d="M56.4987 49.9456C56.3932 49.8771 52.1611 47.9355 51.5524 52.2846C50.9437 56.6338 55.6503 56.3185 55.6743 56.1952C55.6982 56.0719 56.4987 49.9456 56.4987 49.9456Z" fill="#FFBE9D"/>
<path d="M54.5146 54.3732C54.5146 54.3732 54.4236 54.4143 54.2846 54.4555C54.0837 54.5084 53.8691 54.4855 53.6855 54.3915C53.2062 54.1631 52.9234 53.3819 53.0145 52.5961C53.054 52.2206 53.1818 51.8583 53.3883 51.5363C53.4498 51.4057 53.5441 51.2916 53.6628 51.204C53.7814 51.1163 53.9209 51.0579 54.0689 51.0337C54.1627 51.022 54.2578 51.0422 54.3375 51.0906C54.4173 51.1391 54.4766 51.2127 54.5051 51.2987C54.553 51.4266 54.5051 51.5134 54.5338 51.5225C54.5626 51.5317 54.644 51.4632 54.6297 51.2759C54.622 51.1656 54.5726 51.0617 54.4907 50.9835C54.377 50.8763 54.224 50.8157 54.0641 50.8145C53.8717 50.827 53.6859 50.886 53.5241 50.9859C53.3622 51.0858 53.2297 51.2233 53.1391 51.3855C52.8914 51.7359 52.7383 52.1392 52.6933 52.5596C52.6023 53.4413 52.9569 54.323 53.5896 54.5879C53.7073 54.6375 53.8352 54.6611 53.9638 54.6572C54.0924 54.6532 54.2184 54.6218 54.3325 54.5651C54.4907 54.4783 54.5434 54.3824 54.5146 54.3732Z" fill="#EB996E"/>
<path d="M68.9551 59.0597C69.0175 58.9546 68.1451 58.6029 67.5892 57.7577C67.3619 57.3834 67.1863 56.9826 67.0667 56.5654C66.9661 56.2365 66.8846 56.0263 66.8319 56.0354C66.7792 56.0446 66.7744 56.2639 66.8319 56.6156C66.8888 57.0866 67.0524 57.5402 67.3112 57.945C67.5745 58.3529 67.951 58.6834 68.3992 58.8998C68.7059 59.0643 68.9216 59.0963 68.9551 59.0597Z" fill="#263238"/>
<path d="M51.0923 42.3398C52.1995 40.8825 52.5973 39.0643 53.2875 37.3922C53.9776 35.7202 55.1519 34.0299 56.978 33.5822L57.0163 33.605C58.6603 33.1482 60.6158 33.2989 61.8092 34.4639C62.3508 32.2208 64.6131 30.6082 66.9951 30.2336C69.3772 29.8589 73.0678 30.5305 75.215 31.6041C76.8733 32.4172 78.4071 33.9157 80.2379 36.0857C81.0141 36.9979 81.7099 37.9697 82.3181 38.9912L83.7559 45.1174L81.7237 48.0823C81.6003 48.2896 81.4659 48.4909 81.3211 48.6853L79.126 55.1222C79.1979 53.3222 79.9408 47.1001 80.0127 45.2955C78.6025 45.1311 77.2417 44.6966 76.012 44.0184C74.7823 43.3401 73.7091 42.4319 72.8569 41.3484C71.9366 40.1744 71.2608 38.7445 69.9476 37.977C68.2605 36.9856 66.1133 37.4059 64.1625 37.8628L64.2488 37.7988C63.2328 38.1434 62.2956 38.6707 61.4881 39.3521C61.5629 42.9266 60.829 46.4745 59.3361 49.7543C59.1108 50.2477 58.5357 51.2527 57.9893 51.4035C56.9253 51.6913 56.7431 50.668 56.1776 50.0832C55.7606 49.6538 55.0896 49.5396 54.3467 49.4802C53.9798 47.9496 53.7077 46.3998 53.5319 44.8387C52.8973 44.9633 52.2411 44.9461 51.6147 44.7885L52.3385 43.491C52.0764 43.6416 51.7842 43.7381 51.4805 43.7743C51.3221 43.7932 51.1615 43.763 51.0225 43.6881C50.8835 43.6132 50.7735 43.4977 50.7089 43.3585C50.589 43.0068 50.8622 42.6459 51.0923 42.3398Z" fill="#263238"/>
<path d="M63.851 35.3779C63.5955 35.5365 63.3521 35.7121 63.1224 35.9033C62.5362 36.4651 62.1134 37.1625 61.8955 37.9271C61.7289 38.4496 61.6181 38.9868 61.5647 39.5306C61.5072 40.1199 61.4977 40.7504 61.4785 41.4173C61.4731 42.1171 61.4219 42.816 61.3251 43.5097C61.2679 43.8774 61.183 44.2408 61.0711 44.5969C60.974 44.9805 60.776 45.3343 60.4959 45.6248C60.3691 45.7363 60.2144 45.815 60.0466 45.8533C59.8788 45.8917 59.7035 45.8885 59.5374 45.8441C59.2145 45.7579 58.9311 45.5714 58.7321 45.3142C58.4178 44.8063 58.2523 44.2273 58.2529 43.6376L58.3871 43.665C58.1335 44.1288 57.8106 44.5551 57.4285 44.9304C57.0655 45.277 56.5762 45.4767 56.0625 45.4878C55.8249 45.4895 55.5912 45.4295 55.3867 45.3142C55.1977 45.1982 55.0492 45.0312 54.9601 44.8345C54.8776 44.6519 54.8478 44.4516 54.8739 44.2543C54.9043 44.0778 54.9973 43.9165 55.1375 43.7975L55.1998 43.866C54.6481 44.3775 53.9576 44.7319 53.2059 44.8893C53.1532 44.905 53.0982 44.9127 53.043 44.9122C53.0926 44.8927 53.1439 44.8774 53.1963 44.8665C53.3018 44.8345 53.4552 44.7934 53.6469 44.7203C54.2011 44.5132 54.7063 44.2026 55.1327 43.8066L55.1998 43.8751C55.0773 43.999 54.9981 44.156 54.9732 44.3246C54.9483 44.4932 54.9789 44.6649 55.0608 44.8162C55.1424 44.9918 55.2777 45.1399 55.449 45.2411C55.6345 45.346 55.8469 45.3998 56.0625 45.3964C56.5417 45.3784 56.9958 45.1873 57.3326 44.8619C57.6967 44.4929 58.0034 44.076 58.2433 43.6239L58.3583 43.4274V43.6513C58.3687 44.2165 58.534 44.7692 58.8376 45.2548C59.02 45.4762 59.2719 45.6363 59.5565 45.7116C59.6999 45.7515 59.8517 45.7552 59.9971 45.7224C60.1424 45.6895 60.2763 45.6213 60.3857 45.5243C60.6439 45.2516 60.8267 44.9219 60.9177 44.565C61.0296 44.215 61.1145 43.8577 61.1717 43.496C61.2682 42.8083 61.321 42.1157 61.3299 41.4219C61.3299 40.7549 61.3682 40.1245 61.4305 39.5306C61.4909 38.9785 61.6097 38.4336 61.7852 37.9042C62.0186 37.1287 62.4654 36.4268 63.0793 35.8713C63.3055 35.6665 63.5664 35.4997 63.851 35.3779Z" fill="#455A64"/>
<path d="M83.9187 43.3953L83.8612 43.4318L83.6839 43.5323C83.5887 43.5893 83.4894 43.6397 83.3867 43.6831C83.2621 43.7333 83.1231 43.8018 82.9601 43.8521C82.0256 44.158 81.0264 44.2396 80.0508 44.0897C78.5999 43.8692 77.2467 43.2537 76.1542 42.3171C74.8409 41.1614 73.789 39.7623 73.0628 38.2056C72.6506 37.3924 72.3295 36.5655 71.9652 35.798C71.6375 35.051 71.1966 34.3537 70.6568 33.7285C70.1756 33.1604 69.5504 32.7186 68.8402 32.4448C68.5194 32.3284 68.1814 32.2606 67.8385 32.2438C67.5164 32.2318 67.194 32.261 66.88 32.3306C65.9314 32.5482 65.1044 33.0999 64.565 33.8747C64.3842 34.1628 64.2379 34.4692 64.1288 34.7884C64.1257 34.7672 64.1257 34.7457 64.1288 34.7244C64.1288 34.6696 64.1576 34.6102 64.1768 34.5326C64.2533 34.2872 64.3628 34.0522 64.5027 33.8336C64.7257 33.4858 65.0093 33.1768 65.3414 32.9199C65.7814 32.5816 66.2933 32.3384 66.8416 32.2073C67.5104 32.0429 68.2158 32.0763 68.8642 32.3032C69.5962 32.5827 70.2424 33.0336 70.743 33.6143C71.2927 34.2481 71.7431 34.9544 72.0802 35.7112C72.4493 36.4879 72.7704 37.3102 73.1778 38.1188C73.899 39.6557 74.9355 41.0397 76.2261 42.1892C77.3002 43.1173 78.6308 43.7324 80.0604 43.9617C81.0212 44.1202 82.0079 44.0543 82.9362 43.7699C83.588 43.5826 83.9091 43.3587 83.9187 43.3953Z" fill="#455A64"/>
<path d="M78.407 49.7548C78.2632 49.8736 77.5491 49.2112 76.4323 49.0879C75.3156 48.9645 74.4289 49.4076 74.3282 49.2615C74.2755 49.1929 74.4337 48.9737 74.8075 48.7589C75.3286 48.4893 75.9259 48.3837 76.5138 48.4574C77.0966 48.5227 77.6415 48.7664 78.0667 49.1518C78.3926 49.4579 78.4789 49.7137 78.407 49.7548Z" fill="#263238"/>
<path d="M77.4577 51.7366C77.4221 51.9605 77.2956 52.1621 77.1056 52.298C76.9155 52.4339 76.677 52.4931 76.4416 52.463C76.3266 52.4533 76.2148 52.4219 76.1127 52.3705C76.0106 52.3191 75.9203 52.2488 75.8471 52.1637C75.7739 52.0786 75.7192 51.9804 75.6863 51.8749C75.6534 51.7694 75.643 51.6587 75.6555 51.5493C75.6923 51.3269 75.8184 51.1267 76.0071 50.9912C76.1958 50.8557 76.4324 50.7953 76.6668 50.823C76.782 50.8327 76.894 50.8641 76.9964 50.9155C77.0987 50.9668 77.1893 51.037 77.2629 51.1221C77.3364 51.2071 77.3916 51.3052 77.425 51.4107C77.4585 51.5162 77.4696 51.627 77.4577 51.7366Z" fill="#263238"/>
<path d="M81.8623 38.1826C82.3416 38.9547 83.1516 39.6948 84.0958 39.6948C84.4419 39.6602 84.7848 39.6007 85.1214 39.5166C85.4282 39.7359 85.2365 40.7957 84.9777 41.0653C84.7381 41.2934 84.4784 41.5012 84.2012 41.6866C85.2365 42.3581 86.2669 42.18 87.4795 41.8922C87.2584 42.8309 86.7832 43.6981 86.1013 44.4074C85.4193 45.1167 84.5544 45.6434 83.5925 45.9352C83.2937 46.0516 82.9701 46.0986 82.6484 46.0724C82.3267 46.0462 82.0162 45.9475 81.7424 45.7844C81.3439 45.3934 81.1102 44.8763 81.0858 44.3317C80.7696 42.3666 80.7101 40.3718 80.9085 38.3928L81.8623 38.1826Z" fill="#263238"/>
<path d="M69.4823 74.2412C69.4823 74.2412 73.7 75.8721 76.1013 81.4364C77.7884 85.347 87.1729 97.6908 87.1729 97.6908L112.125 102.972L112.978 110.56L73.0674 110.245L67.522 93.4102L69.4823 74.2412Z" fill="#15B86C"/>
<path d="M52.6788 67.2285L48.2502 69.001C44.1523 70.6365 38.9088 74.4054 37.1498 78.2977C32.9273 87.672 29.1025 99.7189 27.6359 110.377C26.1549 121.126 29.1025 137.034 29.1025 137.034L66.5543 116.636L64.3639 115.178L71.4622 78.3754L70.1394 73.9212L71.0213 70.1523C71.0213 70.1523 61.0856 66.3514 53.8483 63.624L52.6788 67.2285Z" fill="#15B86C"/>
<g opacity="0.3">
<path d="M49.1029 126.398C49.2403 124.571 49.3777 122.733 49.5151 120.884C49.0758 121.283 48.5009 121.518 47.8951 121.546C48.832 120.694 49.6634 119.742 50.373 118.71L48.6667 119.408C49.2685 118.967 49.7597 118.404 50.1046 117.759C49.1891 117.079 47.8999 117.193 46.7496 117.302C40.8303 117.873 34.8584 117.494 28.9152 117.115C28.3199 117.083 27.7392 116.927 27.2137 116.658C27.2137 116.658 27.0939 115.105 27.3575 114.525C27.6211 113.945 28.0333 114.114 28.6564 113.899C29.2889 113.716 29.9459 113.62 30.6071 113.616C37.8396 113.25 45.0864 113.817 52.3045 114.388C52.7546 114.381 53.1966 114.502 53.5747 114.735C54.1642 115.192 54.1115 116.051 54.0108 116.768C53.6402 119.345 53.2727 121.92 52.9084 124.493" fill="black"/>
</g>
<path d="M71.0212 76.8945C71.0207 77.011 71.0095 77.1272 70.9876 77.2417L70.8343 78.2239C70.7001 79.0737 70.4844 80.3071 70.2016 81.8238C69.636 84.8618 68.7877 89.0419 67.8051 93.6468C66.8226 98.2518 65.8257 102.414 65.1115 105.42C64.7521 106.904 64.4597 108.115 64.2488 108.978C64.1482 109.38 64.0667 109.7 64.0044 109.942C63.9821 110.057 63.9467 110.169 63.8989 110.276C63.9114 110.161 63.9306 110.046 63.9564 109.933C64.0044 109.686 64.0715 109.362 64.1577 108.96C64.3447 108.088 64.637 106.877 64.939 105.383L67.5367 93.6103C68.5432 89.0053 69.4203 84.8298 70.029 81.801C70.3214 80.3071 70.5658 79.0874 70.7384 78.2148C70.8199 77.8128 70.887 77.4884 70.9349 77.2417C70.9513 77.1235 70.9802 77.0072 71.0212 76.8945Z" fill="#263238"/>
<path d="M37.1499 129.144C37.2169 129.065 37.2924 128.993 37.3752 128.929L38.0462 128.339C38.3338 128.084 38.698 127.778 39.1342 127.426C39.5703 127.074 40.0496 126.681 40.6152 126.275C41.7223 125.429 43.0883 124.484 44.646 123.492C46.2037 122.501 48.001 121.496 49.8846 120.528C51.7683 119.559 53.6806 118.755 55.4157 118.074C57.1507 117.394 58.7419 116.868 60.0983 116.475C60.7693 116.261 61.3924 116.105 61.934 115.959C62.4756 115.813 62.9453 115.699 63.3287 115.612L64.2202 115.42C64.3213 115.389 64.4259 115.371 64.5318 115.365C64.4349 115.408 64.3338 115.442 64.2298 115.466L63.3527 115.703C62.9741 115.804 62.5091 115.927 61.9723 116.087C61.4355 116.247 60.822 116.411 60.151 116.635C58.809 117.051 57.2274 117.604 55.5019 118.28C53.7765 118.956 51.912 119.783 50.0045 120.738C48.0969 121.692 46.3379 122.707 44.7706 123.675C43.2033 124.644 41.8374 125.585 40.7206 126.416C40.1503 126.814 39.6614 127.207 39.2204 127.535C38.7795 127.864 38.4104 128.166 38.1085 128.408L37.4087 128.961C37.3296 129.03 37.2428 129.092 37.1499 129.144Z" fill="#263238"/>
<path d="M56.3742 115.671C56.4078 115.73 52.7651 117.681 48.2263 120.029C43.6874 122.377 40.0064 124.237 39.9729 124.177C39.9393 124.118 43.5819 122.172 48.1208 119.819C52.6597 117.466 56.3407 115.616 56.3742 115.671Z" fill="#263238"/>
<g opacity="0.3">
<path d="M43.2129 87.4756C45.5374 97.0692 52.6453 105.63 62.1065 109.536C55.3002 102.592 48.9883 95.2221 43.2129 87.4756Z" fill="black"/>
</g>
<g opacity="0.3">
<path d="M70.4267 80.1846C71.3422 84.2413 70.6616 89.3214 68.5096 92.9167L67.9775 91.8659C68.73 88.8188 69.8084 83.4144 70.4075 80.1846" fill="black"/>
</g>
<path d="M90.3366 176.988L85.8456 189.862C85.8456 189.862 98.0723 198.542 97.4828 200.995L70.978 193.594L77.1082 173.256L90.3366 176.988Z" fill="#455A64"/>
<g opacity="0.3">
<path d="M90.3366 176.988L85.8456 189.862C85.8456 189.862 98.0723 198.542 97.4828 200.995L70.978 193.594L77.1082 173.256L90.3366 176.988Z" fill="black"/>
</g>
<path d="M77.9851 186.481C77.7075 186.484 77.4407 186.584 77.2361 186.763C77.0316 186.942 76.904 187.187 76.8779 187.45C76.8697 187.714 76.9688 187.972 77.1544 188.168C77.3401 188.365 77.5981 188.485 77.8748 188.505C78.1693 188.502 78.452 188.394 78.6681 188.204C78.8841 188.013 79.0182 187.752 79.0443 187.473C79.0222 187.196 78.8884 186.939 78.6711 186.755C78.4538 186.571 78.1701 186.475 77.8796 186.486" fill="#E0E0E0"/>
<g opacity="0.6">
<path d="M70.978 193.595L71.6778 191.566L96.8309 199.419C96.8309 199.419 97.8614 200.237 97.4828 200.996L70.978 193.595Z" fill="white"/>
</g>
<path d="M86.3151 189.853C86.272 189.976 85.6106 189.853 84.8485 190.072C84.0864 190.291 83.5927 190.712 83.4873 190.629C83.3819 190.547 83.7941 189.889 84.7191 189.643C85.6441 189.396 86.3774 189.748 86.3151 189.853Z" fill="#263238"/>
<path d="M88.7593 191.726C88.7593 191.854 88.1267 191.909 87.5276 192.306C86.9284 192.704 86.6313 193.22 86.5019 193.179C86.3725 193.138 86.5019 192.42 87.2639 191.936C88.026 191.452 88.7929 191.607 88.7593 191.726Z" fill="#263238"/>
<path d="M89.3634 195.339C89.2388 195.339 89.2484 194.668 89.7852 194.083C90.322 193.498 91.0169 193.398 91.0361 193.517C91.0553 193.635 90.5568 193.891 90.1398 194.375C89.7229 194.86 89.4976 195.362 89.3634 195.339Z" fill="#263238"/>
<path d="M86.9959 186.806C86.9096 186.907 86.368 186.568 85.6204 186.413C84.8727 186.258 84.2352 186.317 84.1825 186.189C84.1298 186.061 84.8295 185.778 85.7066 185.975C86.5837 186.171 87.0918 186.733 86.9959 186.806Z" fill="#263238"/>
<path d="M98.0671 182.736L97.5064 196.295C97.5064 196.295 111.78 201.388 111.928 203.905L84.3115 203.814L84.2588 182.653L98.0671 182.736Z" fill="#455A64"/>
<path d="M88.9704 195.125C88.7039 195.2 88.4762 195.367 88.3311 195.593C88.186 195.819 88.1337 196.088 88.1843 196.349C88.2547 196.605 88.4258 196.826 88.6623 196.966C88.8987 197.105 89.1823 197.153 89.4545 197.098C89.7356 197.017 89.9751 196.84 90.1265 196.6C90.278 196.36 90.3306 196.075 90.2741 195.801C90.1732 195.541 89.9704 195.328 89.7085 195.208C89.4465 195.088 89.1457 195.07 88.8697 195.157" fill="#E0E0E0"/>
<g opacity="0.6">
<path d="M84.3115 203.814L84.393 201.681L110.845 202.562C110.845 202.562 112.072 203.079 111.928 203.905L84.3115 203.814Z" fill="white"/>
</g>
<path d="M97.9575 196.162C97.9575 196.29 97.2769 196.345 96.6107 196.756C95.9445 197.167 95.5898 197.706 95.4652 197.67C95.3406 197.633 95.5467 196.875 96.3615 196.391C97.1763 195.906 97.9863 196.043 97.9575 196.162Z" fill="#263238"/>
<path d="M100.847 197.313C100.876 197.436 100.291 197.651 99.8309 198.195C99.3708 198.738 99.2366 199.314 99.1024 199.305C98.9682 199.296 98.8867 198.574 99.4715 197.907C100.056 197.24 100.847 197.19 100.847 197.313Z" fill="#263238"/>
<path d="M102.472 200.62C102.348 200.648 102.166 200.004 102.511 199.305C102.856 198.606 103.493 198.322 103.551 198.428C103.608 198.533 103.215 198.912 102.937 199.492C102.659 200.072 102.616 200.611 102.472 200.62Z" fill="#263238"/>
<path d="M97.7224 193.056C97.6649 193.175 97.0466 192.996 96.2846 193.056C95.5225 193.115 94.9282 193.33 94.8467 193.22C94.7652 193.111 95.326 192.654 96.251 192.608C97.176 192.562 97.7895 192.955 97.7224 193.056Z" fill="#263238"/>
<path d="M64.9824 116.339C64.9824 116.339 98.0869 124.562 102.199 130.003C105.669 134.621 87.4467 181.781 87.4467 181.781L73.068 180.598L79.27 141.136L42.1777 129.898L47.7806 116.32L64.9824 116.339Z" fill="#263238"/>
<path d="M67.3542 123.73C67.3542 123.73 101.197 131.565 104.619 137.134C106.215 139.734 105.165 148.267 104.571 152.297C104.168 155.01 98.1869 192.983 98.1869 192.983H83.5542L83.8753 150.095L48.7146 143.338C48.7146 143.338 29.8402 144.709 29.1021 137.034L36.9816 126.855L55.578 118.098L67.3542 123.73Z" fill="#263238"/>
<path d="M64.776 122.743C64.776 122.743 64.9437 122.78 65.2553 122.867L66.6932 123.246L72.2146 124.717C74.611 125.356 77.5443 126.137 80.9329 127.097C84.3214 128.056 88.1606 129.217 92.3256 130.72C94.4121 131.463 96.5657 132.309 98.7864 133.26L100.464 133.981C101.029 134.245 101.58 134.536 102.113 134.854C102.658 135.18 103.173 135.549 103.651 135.96C104.148 136.376 104.565 136.872 104.883 137.426C106.024 142.369 105.334 147.773 104.485 153.297C104.116 156.079 103.642 158.916 103.196 161.817C102.75 164.718 102.276 167.687 101.801 170.702C100.843 176.737 99.884 182.987 98.8679 189.382C98.6762 190.593 98.4893 191.799 98.2975 192.996V193.101H83.4395V192.982C83.569 176.728 83.6888 162.008 83.7846 150.099L83.8613 150.185L58.8568 145.338L52.0365 144.004L50.2631 143.653C49.8605 143.57 49.6592 143.52 49.6592 143.52L50.2679 143.625L52.0508 143.954L58.8999 145.233L83.8949 149.994H83.9716V150.071C83.8901 161.981 83.7894 176.7 83.6792 192.959L83.5546 192.841H98.1825L98.0627 192.941C98.2496 191.74 98.4413 190.538 98.6283 189.327L101.566 170.647C102.046 167.626 102.512 164.664 102.966 161.762C103.416 158.861 103.896 156.024 104.27 153.242C104.468 151.853 104.661 150.482 104.849 149.13C105.051 147.799 105.176 146.459 105.223 145.115C105.271 143.79 105.271 142.485 105.223 141.199C105.195 140.555 105.156 139.92 105.099 139.29C105.093 138.672 104.961 138.06 104.71 137.49C104.406 136.957 104.005 136.479 103.527 136.078C103.059 135.676 102.556 135.314 102.022 134.996C101.496 134.677 100.952 134.387 100.392 134.128L98.7241 133.401C96.5098 132.456 94.3578 131.601 92.2777 130.857C88.1222 129.344 84.2831 128.189 80.9041 127.202C77.5251 126.215 74.5919 125.439 72.2002 124.785L66.6884 123.305L65.2505 122.903C64.939 122.798 64.776 122.743 64.776 122.743Z" fill="#455A64"/>
<path d="M111.646 103.346C111.862 103.035 114.656 99.9609 115.408 99.9609C116.161 99.9609 117.024 100.783 117.024 100.783C117.527 100.563 118.088 100.492 118.634 100.578C119.281 100.783 122.291 103.241 122.291 104.164V105.703C122.359 106.11 122.359 106.525 122.291 106.932C122.186 107.65 120.374 108.878 120.374 108.878H110.036C110.036 108.878 108.066 107.613 108.31 106.421C108.555 105.228 111.646 103.346 111.646 103.346Z" fill="#FFBE9D"/>
<path d="M117.023 100.783C117.248 100.881 117.463 100.997 117.666 101.13L119.372 102.158C119.569 102.267 119.758 102.39 119.938 102.524C120.128 102.692 120.271 102.902 120.355 103.136C120.42 103.384 120.451 103.639 120.446 103.894L120.489 104.68C120.546 105.754 120.604 106.932 120.666 108.166L120.695 108.723V108.824L120.594 108.846L119.962 108.993H119.933C119.637 108.984 119.352 108.883 119.123 108.705C118.911 108.538 118.734 108.335 118.6 108.106C118.357 107.69 118.175 107.245 118.059 106.781C117.858 106.008 117.739 105.216 117.704 104.42L117.762 104.493L115.955 103.817C115.731 103.742 115.514 103.648 115.308 103.538C115.54 103.583 115.768 103.647 115.988 103.73L117.819 104.337H117.872V104.392C117.927 105.176 118.06 105.953 118.27 106.713C118.387 107.154 118.566 107.578 118.802 107.974C118.905 108.183 119.063 108.362 119.26 108.496C119.457 108.63 119.687 108.712 119.928 108.737H119.899L120.532 108.586L120.436 108.709L120.407 108.147C120.355 106.914 120.297 105.74 120.249 104.662C120.249 104.392 120.249 104.132 120.22 103.876C120.225 103.638 120.201 103.401 120.148 103.168C120.082 102.964 119.962 102.78 119.799 102.633C119.628 102.502 119.451 102.38 119.267 102.268L117.603 101.181C117.399 101.064 117.205 100.931 117.023 100.783Z" fill="#EB996E"/>
<path d="M110.035 108.527C110.262 108.48 110.493 108.451 110.725 108.44L112.609 108.299H112.638C113.338 108.455 114.047 108.577 114.761 108.664C115.173 108.717 115.587 108.75 116.002 108.76C116.204 108.792 116.41 108.78 116.607 108.726C116.803 108.673 116.985 108.578 117.138 108.449C117.267 108.275 117.329 108.064 117.316 107.851C117.316 107.627 117.282 107.394 117.272 107.156C117.245 106.963 117.146 106.785 116.994 106.654C116.843 106.509 116.67 106.386 116.482 106.288C115.798 105.96 115.028 105.83 114.267 105.914C113.995 105.938 113.72 105.9 113.466 105.803C113.212 105.706 112.985 105.553 112.805 105.356C112.58 105.05 112.599 104.827 112.614 104.831C112.677 104.996 112.768 105.15 112.882 105.288C113.062 105.459 113.28 105.589 113.52 105.668C113.76 105.747 114.015 105.774 114.267 105.745C115.061 105.632 115.872 105.754 116.592 106.092C116.801 106.198 116.993 106.332 117.162 106.489C117.362 106.661 117.488 106.897 117.517 107.152C117.517 107.362 117.565 107.609 117.565 107.846C117.578 108.114 117.495 108.378 117.33 108.595C117.163 108.78 116.934 108.904 116.683 108.947C116.457 108.988 116.227 109.001 115.998 108.988C115.557 108.988 115.135 108.934 114.732 108.883C114.01 108.784 113.295 108.646 112.59 108.468H112.619L110.735 108.532C110.502 108.554 110.268 108.552 110.035 108.527Z" fill="#EB996E"/>
<path d="M120.556 108.485C120.795 107.874 121.074 107.278 121.39 106.699C121.633 106.085 121.955 105.502 122.348 104.963C122.183 105.597 121.94 106.21 121.624 106.79C121.38 107.413 121.018 107.987 120.556 108.485Z" fill="#EB996E"/>
<path d="M98.1588 110.564L135.395 111.021L147.377 78.9783C147.505 78.6575 147.499 78.3023 147.361 77.9854C147.223 77.6685 146.963 77.4141 146.634 77.2742C146.457 77.1959 146.265 77.1535 146.07 77.1497C145.875 77.1459 145.681 77.1807 145.501 77.252C145.321 77.3233 145.158 77.4295 145.023 77.5639C144.888 77.6982 144.784 77.8578 144.717 78.0326L132.903 108.376L98.1252 108.705C97.871 108.705 97.6272 108.801 97.4474 108.972C97.2676 109.144 97.1666 109.376 97.1666 109.618C97.1619 109.744 97.1844 109.869 97.2326 109.986C97.2808 110.102 97.3537 110.208 97.4468 110.297C97.5399 110.386 97.6511 110.455 97.7736 110.501C97.8961 110.547 98.0272 110.569 98.1588 110.564Z" fill="#263238"/>
<path d="M42.6712 86.7582C42.6712 86.7582 60.8842 110.359 63.7072 110.359H90.2838V100.765L70.1872 96.2467C70.1872 96.2467 60.2947 76.7397 58.0995 74.2408C55.9044 71.7419 50.0522 68.375 45.6763 72.1393C41.3004 75.9037 42.6712 86.7582 42.6712 86.7582Z" fill="#15B86C"/>
<path d="M90.2646 101.71L94.6214 101.377C94.6214 101.377 94.7125 99.8374 95.6663 99.2937C96.62 98.7501 96.5194 97.5715 97.1041 97.6628C97.4206 97.7222 97.7462 97.7222 98.0627 97.6628L101.672 94.7665L104.715 92.866L107.112 92.4092C107.112 92.4092 108.55 92.7701 107.112 94.0355L105.588 94.8533L104.26 96.1233L107.299 94.6979C107.438 94.6336 107.592 94.6002 107.747 94.6002C107.902 94.6002 108.055 94.6336 108.195 94.6979C109.017 95.0365 109.801 95.4544 110.534 95.9451C110.599 96.0037 110.652 96.0744 110.687 96.153C110.723 96.2316 110.742 96.3163 110.742 96.402C110.742 96.4876 110.723 96.5723 110.687 96.6509C110.652 96.7295 110.599 96.8003 110.534 96.8588L111.861 97.9461C111.861 97.9461 112.149 99.3988 110.625 99.0333L109.393 98.7638L107.744 100.29C107.744 100.29 113.261 99.2024 113.64 99.376C114.018 99.5496 114.498 100.372 113.64 101.094C112.782 101.816 109.455 101.637 108.698 102.364C107.941 103.09 102.908 107.467 101.672 107.736C100.435 108.006 90.2934 110.368 90.2934 110.368L90.2646 101.71Z" fill="#FFBE9D"/>
<path d="M111.823 97.9325C111.563 97.7809 111.313 97.613 111.075 97.4299C110.85 97.27 110.596 97.0827 110.27 96.8817C110.117 96.7812 109.957 96.6807 109.791 96.5802C109.642 96.4748 109.467 96.4072 109.283 96.3838C108.905 96.4616 108.546 96.6056 108.224 96.8086C107.898 96.9777 107.61 97.1376 107.366 97.2655C107.115 97.4338 106.845 97.5747 106.561 97.6858C106.762 97.4644 107 97.2761 107.265 97.1284C107.5 96.9731 107.783 96.7949 108.109 96.6122C108.272 96.5208 108.444 96.4295 108.626 96.3381C108.824 96.229 109.045 96.1634 109.273 96.1462C109.34 96.1335 109.408 96.1335 109.475 96.1462C109.53 96.164 109.585 96.1853 109.638 96.2102C109.735 96.255 109.829 96.3053 109.92 96.3609C110.098 96.466 110.261 96.5711 110.4 96.6807C110.702 96.8909 110.965 97.0965 111.181 97.2746C111.617 97.6492 111.852 97.9096 111.823 97.9325Z" fill="#EB996E"/>
<path d="M98.4748 97.3115C98.5131 97.3663 98.0626 97.741 97.5162 98.2252C96.9698 98.7095 96.5576 99.1115 96.5049 99.0612C96.7069 98.6722 96.9927 98.3282 97.3436 98.0516C97.6512 97.7201 98.0397 97.466 98.4748 97.3115Z" fill="#EB996E"/>
<path d="M58.0996 74.2412C58.4904 74.7 58.843 75.1873 59.1541 75.6985C59.782 76.6899 60.6686 78.17 61.7327 80.0842C63.8751 83.9125 66.8227 89.4631 70.2784 96.2197L70.2113 96.1649L90.3127 100.669H90.4086V110.514H89.081H66.492H63.923C63.8113 110.521 63.6993 110.521 63.5875 110.514C63.4745 110.493 63.3649 110.458 63.2616 110.409C63.0608 110.308 62.8699 110.191 62.6912 110.057C62.3572 109.82 62.0372 109.565 61.7327 109.294C60.5685 108.25 59.463 107.147 58.4208 105.992C56.379 103.78 54.5865 101.647 52.9329 99.6917C49.6641 95.772 47.1095 92.5331 45.3553 90.2945L43.3471 87.6997C43.1266 87.4027 42.9589 87.1789 42.8343 87.019C42.7096 86.8591 42.6665 86.7814 42.6665 86.7814C42.6665 86.7814 42.7336 86.8545 42.8582 87.0053L43.3902 87.6723L45.4368 90.2306C47.215 92.4554 49.7936 95.6761 53.0767 99.5821C54.7207 101.528 56.5372 103.653 58.5789 105.859C59.6213 107.005 60.7251 108.098 61.886 109.135C62.1902 109.4 62.5103 109.649 62.8446 109.879C63.0082 109.992 63.1813 110.091 63.3623 110.176C63.5395 110.258 63.7369 110.291 63.9326 110.272H66.5016H89.0906H90.2936L90.169 110.391C90.169 107.102 90.169 103.886 90.169 100.797L90.26 100.911L70.1634 96.3522H70.1155L70.0915 96.3111C66.6598 89.5453 63.7361 83.9765 61.6272 80.1436C60.5776 78.2203 59.7101 76.7355 59.0966 75.7351C58.785 75.2417 58.5502 74.8579 58.3633 74.6204C58.1763 74.3828 58.0996 74.2412 58.0996 74.2412Z" fill="#263238"/>
<path d="M55.454 72.6971C55.454 72.7383 54.8309 72.5007 53.8148 72.2814C53.2178 72.1553 52.6125 72.0683 52.0031 72.021C51.2581 71.9665 50.5098 71.9665 49.7648 72.021C49.0219 72.0954 48.2864 72.2252 47.5648 72.4093C46.9748 72.5629 46.3967 72.7552 45.8346 72.985C44.876 73.3824 44.3296 73.7205 44.3057 73.6839C44.4138 73.5801 44.5364 73.491 44.6699 73.419C45.0192 73.1996 45.3844 73.0042 45.7627 72.8342C46.3238 72.577 46.9056 72.3631 47.5025 72.1946C48.2342 71.9951 48.9834 71.859 49.7408 71.788C50.4997 71.7217 51.2634 71.7217 52.0222 71.788C52.6417 71.8484 53.2553 71.9538 53.8579 72.1033C54.2617 72.2038 54.6574 72.3321 55.0418 72.487C55.315 72.5966 55.4635 72.6789 55.454 72.6971Z" fill="#263238"/>
<path d="M66.5254 100.628C66.8222 99.8082 67.2828 99.0511 67.8818 98.3985C68.4146 97.6945 69.0871 97.0969 69.8613 96.6396C69.9092 96.6945 68.9889 97.4437 68.0735 98.5447C67.1581 99.6456 66.5973 100.66 66.5254 100.628Z" fill="#263238"/>
<path d="M65.9165 97.6858C66.9351 96.8261 68.2618 96.3729 69.6214 96.4204C69.6214 96.4935 68.7443 96.5803 67.7043 96.9366C66.6642 97.2929 65.9596 97.7452 65.9165 97.6858Z" fill="#263238"/>
<path d="M82.9938 146.952C82.6103 146.189 81.6805 145.855 80.8322 145.581C64.0905 140.437 46.1267 137.97 28.8196 140.967C26.7395 141.328 24.5922 141.799 22.9387 143.06C21.2851 144.32 20.293 146.605 21.1749 148.432L24.7264 149.519C42.4482 147.639 60.3408 147.759 78.0331 149.876C79.2265 150.022 80.4823 150.163 81.5846 149.716C82.687 149.268 83.5162 147.975 82.9938 146.952Z" fill="#455A64"/>
<path d="M63.5681 141.675C63.5301 141.682 63.4911 141.682 63.4531 141.675L63.132 141.634L61.8906 141.46C60.817 141.296 59.2593 141.058 57.323 140.848C52.288 140.281 47.2175 140.051 42.1487 140.158C40.6677 140.186 39.2202 140.254 37.835 140.364C36.4499 140.474 35.0983 140.538 33.809 140.647C33.6495 140.66 33.4892 140.66 33.3297 140.647C33.1799 140.634 33.029 140.634 32.8792 140.647C32.5758 140.667 32.2745 140.71 31.9781 140.775L30.2431 141.122C29.1263 141.36 28.1007 141.62 27.1756 141.913C25.7144 142.347 24.319 142.961 23.025 143.74C22.5457 144.019 22.2294 144.261 22.0041 144.43L21.7453 144.617C21.6878 144.658 21.6542 144.681 21.6494 144.677L21.7261 144.599L21.9705 144.393C22.2893 144.131 22.6238 143.887 22.9723 143.662C24.2562 142.842 25.653 142.195 27.1229 141.739C28.1318 141.416 29.1572 141.142 30.1952 140.917L31.935 140.561C32.2493 140.485 32.5701 140.438 32.8936 140.419C33.053 140.406 33.2134 140.406 33.3729 140.419C33.5321 140.436 33.6929 140.436 33.8521 140.419C35.1223 140.305 36.4834 140.227 37.8782 140.122C39.2729 140.017 40.7539 139.939 42.1918 139.912C47.2562 139.802 52.3221 140.054 57.347 140.666C59.2641 140.899 60.8362 141.164 61.905 141.355L63.1416 141.575L63.4579 141.639L63.5681 141.675Z" fill="#263238"/>
<path d="M21.6111 115.672L50.148 116.622C50.2475 116.625 50.345 116.649 50.4343 116.69C50.5236 116.732 50.6027 116.791 50.6664 116.864C50.7301 116.937 50.7771 117.022 50.8042 117.113C50.8313 117.204 50.838 117.3 50.8238 117.394L46.7163 150.012H53.1484L56.4651 114.105C56.5025 113.815 56.4763 113.521 56.3882 113.241C56.3 112.962 56.1519 112.703 55.9531 112.481C55.7544 112.259 55.5094 112.078 55.2336 111.951C54.9579 111.824 54.6575 111.753 54.3514 111.743L20.8442 110.601L21.6111 115.672Z" fill="#455A64"/>
<path d="M173.273 113.296H168.801V114.242L178.646 203.933H183.237L173.273 113.296Z" fill="#455A64"/>
<path d="M73.4364 113.296H77.9082V114.26L68.7298 203.905H64.1382L73.4364 113.296Z" fill="#455A64"/>
<path d="M73.4369 113.297C73.4369 113.297 73.4369 113.456 73.3986 113.753C73.3602 114.05 73.3219 114.525 73.2644 115.124C73.1445 116.325 72.972 118.098 72.7467 120.373C72.2674 124.941 71.6204 131.534 70.8008 139.711C69.1329 156.048 66.8275 178.684 64.2585 203.902L64.1387 203.769H68.7303L68.6057 203.879C72.9576 161.767 76.6434 126.093 77.8703 114.242C77.8703 113.785 77.8703 113.53 77.8703 113.278L77.9039 113.31H74.5489H73.7245H73.4513H73.7149H74.5297L77.9231 113.287H77.9566V113.324C77.9566 113.575 77.9566 113.84 77.9566 114.288C76.7536 126.138 73.135 161.799 68.8501 203.938V204.048H64.0093V203.915C66.6166 178.67 68.9603 156.006 70.6522 139.652C71.5102 131.488 72.1956 124.9 72.6748 120.346C72.9145 118.061 73.1014 116.325 73.226 115.124C73.2931 114.535 73.3411 114.082 73.3746 113.753C73.4082 113.425 73.4369 113.297 73.4369 113.297Z" fill="#263238"/>
<path d="M190.657 110.377H62.6768V114.237H190.657V110.377Z" fill="#455A64"/>
<path d="M177.031 114.242C177.031 114.306 151.523 114.361 120.067 114.361C88.6112 114.361 63.0938 114.306 63.0938 114.242C63.0938 114.178 88.5968 114.123 120.067 114.123C151.537 114.123 177.031 114.169 177.031 114.242Z" fill="#263238"/>
</svg>
